<?xml version="1.0" encoding="UTF-8" standalone="no"?>
<!DOCTYPE svg PUBLIC "-//W3C//DTD SVG 1.1//EN"
 "http://www.w3.org/Graphics/SVG/1.1/DTD/svg11.dtd">
<!-- Generated by graphviz version 14.0.0 (20250921.2048)
 -->
<!-- Title: SendMessageCommand Pages: 1 -->
<svg width="221pt" height="564pt"
 viewBox="0.00 0.00 221.00 564.00" xmlns="http://www.w3.org/2000/svg" xmlns:xlink="http://www.w3.org/1999/xlink">
<g id="graph0" class="graph" transform="scale(1 1) rotate(0) translate(4 560)">
<title>SendMessageCommand</title>
<!-- Node1 -->
<g id="Node000001" class="node">
<title>Node1</title>
<g id="a_Node000001"><a xlink:title=" ">
<polygon fill="#999999" stroke="none" points="131.25,-65 0,-65 0,0 131.25,0 131.25,-65"/>
<text xml:space="preserve" text-anchor="start" x="12" y="-51.5" font-family="Helvetica,sans-Serif" font-size="10.00">SendMessageCommand</text>
<text xml:space="preserve" text-anchor="start" x="64.12" y="-36.25" font-family="Helvetica,sans-Serif" font-size="10.00"> </text>
<text xml:space="preserve" text-anchor="start" x="4" y="-21" font-family="Helvetica,sans-Serif" font-size="10.00">+</text>
<text xml:space="preserve" text-anchor="start" x="14" y="-21" font-family="Helvetica,sans-Serif" font-size="10.00">SendMessageCommand()</text>
<text xml:space="preserve" text-anchor="start" x="4" y="-5.75" font-family="Helvetica,sans-Serif" font-size="10.00">+</text>
<text xml:space="preserve" text-anchor="start" x="14" y="-5.75" font-family="Helvetica,sans-Serif" font-size="10.00">execute()</text>
<polygon fill="#666666" stroke="#666666" points="0,-47.75 0,-47.75 131.25,-47.75 131.25,-47.75 0,-47.75"/>
<polygon fill="#666666" stroke="#666666" points="0,-32.5 0,-32.5 131.25,-32.5 131.25,-32.5 0,-32.5"/>
<polygon fill="none" stroke="#666666" points="0,0 0,-65 131.25,-65 131.25,0 0,0"/>
</a>
</g>
</g>
<!-- Node2 -->
<g id="Node000002" class="node">
<title>Node2</title>
<g id="a_Node000002"><a xlink:href="../../d5/d6a/class_command.html" target="_top" xlink:title=" ">
<polygon fill="white" stroke="none" points="103.12,-167 28.12,-167 28.12,-102 103.12,-102 103.12,-167"/>
<text xml:space="preserve" text-anchor="start" x="43.12" y="-153.5" font-family="Helvetica,sans-Serif" font-size="10.00">Command</text>
<text xml:space="preserve" text-anchor="start" x="32.5" y="-138.25" font-family="Helvetica,sans-Serif" font-size="10.00">#</text>
<text xml:space="preserve" text-anchor="start" x="42.12" y="-138.25" font-family="Helvetica,sans-Serif" font-size="10.00">message</text>
<text xml:space="preserve" text-anchor="start" x="32.12" y="-123" font-family="Helvetica,sans-Serif" font-size="10.00">+</text>
<text xml:space="preserve" text-anchor="start" x="42.12" y="-123" font-family="Helvetica,sans-Serif" font-size="10.00">~Command()</text>
<text xml:space="preserve" text-anchor="start" x="32.12" y="-107.75" font-family="Helvetica,sans-Serif" font-size="10.00">+</text>
<text xml:space="preserve" text-anchor="start" x="42.12" y="-107.75" font-family="Helvetica,sans-Serif" font-size="10.00">execute()</text>
<polygon fill="#666666" stroke="#666666" points="28.12,-149.75 28.12,-149.75 103.12,-149.75 103.12,-149.75 28.12,-149.75"/>
<polygon fill="#666666" stroke="#666666" points="28.12,-134.5 28.12,-134.5 40.12,-134.5 40.12,-134.5 28.12,-134.5"/>
<polygon fill="#666666" stroke="#666666" points="40.12,-134.5 40.12,-134.5 103.12,-134.5 103.12,-134.5 40.12,-134.5"/>
<polygon fill="none" stroke="#666666" points="28.12,-102 28.12,-167 103.12,-167 103.12,-102 28.12,-102"/>
</a>
</g>
</g>
<!-- Node2&#45;&gt;Node1 -->
<g id="edge1_Node000001_Node000002" class="edge">
<title>Node2&#45;&gt;Node1</title>
<g id="a_edge1_Node000001_Node000002"><a xlink:title=" ">
<path fill="none" stroke="#63b8ff" d="M65.62,-90.88C65.62,-82.11 65.62,-73.03 65.62,-64.75"/>
<polygon fill="none" stroke="#63b8ff" points="62.13,-90.62 65.63,-100.62 69.13,-90.62 62.13,-90.62"/>
</a>
</g>
</g>
<!-- Node3 -->
<g id="Node000003" class="node">
<title>Node3</title>
<g id="a_Node000003"><a xlink:href="../../df/d67/class_chat_room.html" target="_top" xlink:title="Abstract base class representing a chat room mediator.">
<polygon fill="white" stroke="none" points="122.62,-556 8.62,-556 8.62,-384.25 122.62,-384.25 122.62,-556"/>
<text xml:space="preserve" text-anchor="start" x="42" y="-542.5" font-family="Helvetica,sans-Serif" font-size="10.00">ChatRoom</text>
<text xml:space="preserve" text-anchor="start" x="14.12" y="-527.25" font-family="Helvetica,sans-Serif" font-size="10.00">&#45;</text>
<text xml:space="preserve" text-anchor="start" x="22.62" y="-527.25" font-family="Helvetica,sans-Serif" font-size="10.00">users</text>
<text xml:space="preserve" text-anchor="start" x="14.12" y="-512" font-family="Helvetica,sans-Serif" font-size="10.00">&#45;</text>
<text xml:space="preserve" text-anchor="start" x="22.62" y="-512" font-family="Helvetica,sans-Serif" font-size="10.00">numUsers</text>
<text xml:space="preserve" text-anchor="start" x="14.12" y="-496.75" font-family="Helvetica,sans-Serif" font-size="10.00">&#45;</text>
<text xml:space="preserve" text-anchor="start" x="22.62" y="-496.75" font-family="Helvetica,sans-Serif" font-size="10.00">chatHistory</text>
<text xml:space="preserve" text-anchor="start" x="12.62" y="-481.5" font-family="Helvetica,sans-Serif" font-size="10.00">+</text>
<text xml:space="preserve" text-anchor="start" x="22.62" y="-481.5" font-family="Helvetica,sans-Serif" font-size="10.00">registerUser()</text>
<text xml:space="preserve" text-anchor="start" x="12.62" y="-466.25" font-family="Helvetica,sans-Serif" font-size="10.00">+</text>
<text xml:space="preserve" text-anchor="start" x="22.62" y="-466.25" font-family="Helvetica,sans-Serif" font-size="10.00">sendMessage()</text>
<text xml:space="preserve" text-anchor="start" x="12.62" y="-451" font-family="Helvetica,sans-Serif" font-size="10.00">+</text>
<text xml:space="preserve" text-anchor="start" x="22.62" y="-451" font-family="Helvetica,sans-Serif" font-size="10.00">saveMessage()</text>
<text xml:space="preserve" text-anchor="start" x="12.62" y="-435.75" font-family="Helvetica,sans-Serif" font-size="10.00">+</text>
<text xml:space="preserve" text-anchor="start" x="22.62" y="-435.75" font-family="Helvetica,sans-Serif" font-size="10.00">removeUser()</text>
<text xml:space="preserve" text-anchor="start" x="12.62" y="-420.5" font-family="Helvetica,sans-Serif" font-size="10.00">+</text>
<text xml:space="preserve" text-anchor="start" x="22.62" y="-420.5" font-family="Helvetica,sans-Serif" font-size="10.00">getUsers()</text>
<text xml:space="preserve" text-anchor="start" x="12.62" y="-405.25" font-family="Helvetica,sans-Serif" font-size="10.00">+</text>
<text xml:space="preserve" text-anchor="start" x="22.62" y="-405.25" font-family="Helvetica,sans-Serif" font-size="10.00">incrementNumUsers()</text>
<text xml:space="preserve" text-anchor="start" x="12.62" y="-390" font-family="Helvetica,sans-Serif" font-size="10.00">+</text>
<text xml:space="preserve" text-anchor="start" x="22.62" y="-390" font-family="Helvetica,sans-Serif" font-size="10.00">getNumUsers()</text>
<polygon fill="#666666" stroke="#666666" points="8.62,-538.75 8.62,-538.75 122.62,-538.75 122.62,-538.75 8.62,-538.75"/>
<polygon fill="#666666" stroke="#666666" points="8.62,-493 8.62,-493 20.62,-493 20.62,-493 8.62,-493"/>
<polygon fill="#666666" stroke="#666666" points="20.62,-493 20.62,-493 122.62,-493 122.62,-493 20.62,-493"/>
<polygon fill="none" stroke="#666666" points="8.62,-384.25 8.62,-556 122.62,-556 122.62,-384.25 8.62,-384.25"/>
</a>
</g>
</g>
<!-- Node3&#45;&gt;Node2 -->
<g id="edge2_Node000002_Node000003" class="edge">
<title>Node3&#45;&gt;Node2</title>
<g id="a_edge2_Node000002_Node000003"><a xlink:title=" ">
<path fill="none" stroke="#63b8ff" d="M60.15,-384.44C57.79,-336.29 56.04,-274.88 58.38,-220.25 58.94,-206.97 60.01,-192.55 61.15,-179.44"/>
<polygon fill="none" stroke="#63b8ff" points="61.12,-179.7 57.69,-173.36 62.22,-167.75 65.65,-174.09 61.12,-179.7"/>
</a>
</g>
<text xml:space="preserve" text-anchor="start" x="61.38" y="-271.75" font-family="Helvetica,sans-Serif" font-size="10.00" fill="grey">#chatRoom</text>
</g>
<!-- Node4 -->
<g id="Node000004" class="node">
<title>Node4</title>
<g id="a_Node000004"><a xlink:href="../../db/d7f/class_users.html" target="_top" xlink:title="Represents a user that participates in a chat room.">
<polygon fill="white" stroke="none" points="213.25,-331 124,-331 124,-220.25 213.25,-220.25 213.25,-331"/>
<text xml:space="preserve" text-anchor="start" x="155.5" y="-317.5" font-family="Helvetica,sans-Serif" font-size="10.00">Users</text>
<text xml:space="preserve" text-anchor="start" x="128.38" y="-302.25" font-family="Helvetica,sans-Serif" font-size="10.00">#</text>
<text xml:space="preserve" text-anchor="start" x="138" y="-302.25" font-family="Helvetica,sans-Serif" font-size="10.00">name</text>
<text xml:space="preserve" text-anchor="start" x="128.38" y="-287" font-family="Helvetica,sans-Serif" font-size="10.00">#</text>
<text xml:space="preserve" text-anchor="start" x="138" y="-287" font-family="Helvetica,sans-Serif" font-size="10.00">commandQueue</text>
<text xml:space="preserve" text-anchor="start" x="128" y="-271.75" font-family="Helvetica,sans-Serif" font-size="10.00">+</text>
<text xml:space="preserve" text-anchor="start" x="138" y="-271.75" font-family="Helvetica,sans-Serif" font-size="10.00">send()</text>
<text xml:space="preserve" text-anchor="start" x="128" y="-256.5" font-family="Helvetica,sans-Serif" font-size="10.00">+</text>
<text xml:space="preserve" text-anchor="start" x="138" y="-256.5" font-family="Helvetica,sans-Serif" font-size="10.00">receive()</text>
<text xml:space="preserve" text-anchor="start" x="128" y="-241.25" font-family="Helvetica,sans-Serif" font-size="10.00">+</text>
<text xml:space="preserve" text-anchor="start" x="138" y="-241.25" font-family="Helvetica,sans-Serif" font-size="10.00">addCommand()</text>
<text xml:space="preserve" text-anchor="start" x="128" y="-226" font-family="Helvetica,sans-Serif" font-size="10.00">+</text>
<text xml:space="preserve" text-anchor="start" x="138" y="-226" font-family="Helvetica,sans-Serif" font-size="10.00">executeAll()</text>
<polygon fill="#666666" stroke="#666666" points="124,-313.75 124,-313.75 213.25,-313.75 213.25,-313.75 124,-313.75"/>
<polygon fill="#666666" stroke="#666666" points="124,-283.25 124,-283.25 136,-283.25 136,-283.25 124,-283.25"/>
<polygon fill="#666666" stroke="#666666" points="136,-283.25 136,-283.25 213.25,-283.25 213.25,-283.25 136,-283.25"/>
<polygon fill="none" stroke="#666666" points="124,-220.25 124,-331 213.25,-331 213.25,-220.25 124,-220.25"/>
</a>
</g>
</g>
<!-- Node3&#45;&gt;Node4 -->
<g id="edge4_Node000004_Node000003" class="edge">
<title>Node3&#45;&gt;Node4</title>
<g id="a_edge4_Node000004_Node000003"><a xlink:title=" ">
<path fill="none" stroke="#63b8ff" d="M110.95,-384.41C118.54,-370.23 126.31,-355.7 133.59,-342.1"/>
<polygon fill="none" stroke="#63b8ff" points="133.49,-342.28 132.8,-335.11 139.15,-331.7 139.85,-338.88 133.49,-342.28"/>
</a>
</g>
<text xml:space="preserve" text-anchor="start" x="132.38" y="-353.75" font-family="Helvetica,sans-Serif" font-size="10.00" fill="grey">#chatRooms</text>
</g>
<!-- Node4&#45;&gt;Node2 -->
<g id="edge3_Node000002_Node000004" class="edge">
<title>Node4&#45;&gt;Node2</title>
<g id="a_edge3_Node000002_Node000004"><a xlink:title=" ">
<path fill="none" stroke="#63b8ff" d="M128.51,-220.44C117.9,-206.11 106.61,-190.86 96.57,-177.3"/>
<polygon fill="none" stroke="#63b8ff" points="96.5,-177.21 89.72,-174.77 89.36,-167.56 96.15,-170.01 96.5,-177.21"/>
</a>
</g>
<text xml:space="preserve" text-anchor="start" x="117.04" y="-189.75" font-family="Helvetica,sans-Serif" font-size="10.00" fill="grey">#fromUser</text>
</g>
</g>
</svg>
