<?xml version="1.0" encoding="UTF-8" standalone="no"?>
<!DOCTYPE svg PUBLIC "-//W3C//DTD SVG 1.1//EN"
 "http://www.w3.org/Graphics/SVG/1.1/DTD/svg11.dtd">
<!-- Generated by graphviz version 14.0.0 (20250921.2048)
 -->
<!-- Title: Name3 Pages: 1 -->
<svg width="127pt" height="431pt"
 viewBox="0.00 0.00 127.00 431.00" xmlns="http://www.w3.org/2000/svg" xmlns:xlink="http://www.w3.org/1999/xlink">
<g id="graph0" class="graph" transform="scale(1 1) rotate(0) translate(4 426.5)">
<title>Name3</title>
<!-- Node1 -->
<g id="Node000001" class="node">
<title>Node1</title>
<g id="a_Node000001"><a xlink:title="Example user subclass: Name3.">
<polygon fill="#999999" stroke="none" points="76.75,-49.75 37.25,-49.75 37.25,0 76.75,0 76.75,-49.75"/>
<text xml:space="preserve" text-anchor="start" x="41.25" y="-36.25" font-family="Helvetica,sans-Serif" font-size="10.00">Name3</text>
<text xml:space="preserve" text-anchor="start" x="55.5" y="-21" font-family="Helvetica,sans-Serif" font-size="10.00"> </text>
<text xml:space="preserve" text-anchor="start" x="55.5" y="-5.75" font-family="Helvetica,sans-Serif" font-size="10.00"> </text>
<polygon fill="#666666" stroke="#666666" points="37.25,-32.5 37.25,-32.5 76.75,-32.5 76.75,-32.5 37.25,-32.5"/>
<polygon fill="#666666" stroke="#666666" points="37.25,-17.25 37.25,-17.25 76.75,-17.25 76.75,-17.25 37.25,-17.25"/>
<polygon fill="none" stroke="#666666" points="37.25,0 37.25,-49.75 76.75,-49.75 76.75,0 37.25,0"/>
</a>
</g>
</g>
<!-- Node2 -->
<g id="Node000002" class="node">
<title>Node2</title>
<g id="a_Node000002"><a xlink:href="../../db/d7f/class_users.html" target="_top" xlink:title="Represents a user that participates in a chat room.">
<polygon fill="white" stroke="none" points="101.62,-197.5 12.38,-197.5 12.38,-86.75 101.62,-86.75 101.62,-197.5"/>
<text xml:space="preserve" text-anchor="start" x="43.88" y="-184" font-family="Helvetica,sans-Serif" font-size="10.00">Users</text>
<text xml:space="preserve" text-anchor="start" x="16.75" y="-168.75" font-family="Helvetica,sans-Serif" font-size="10.00">#</text>
<text xml:space="preserve" text-anchor="start" x="26.38" y="-168.75" font-family="Helvetica,sans-Serif" font-size="10.00">name</text>
<text xml:space="preserve" text-anchor="start" x="16.75" y="-153.5" font-family="Helvetica,sans-Serif" font-size="10.00">#</text>
<text xml:space="preserve" text-anchor="start" x="26.38" y="-153.5" font-family="Helvetica,sans-Serif" font-size="10.00">commandQueue</text>
<text xml:space="preserve" text-anchor="start" x="16.38" y="-138.25" font-family="Helvetica,sans-Serif" font-size="10.00">+</text>
<text xml:space="preserve" text-anchor="start" x="26.38" y="-138.25" font-family="Helvetica,sans-Serif" font-size="10.00">send()</text>
<text xml:space="preserve" text-anchor="start" x="16.38" y="-123" font-family="Helvetica,sans-Serif" font-size="10.00">+</text>
<text xml:space="preserve" text-anchor="start" x="26.38" y="-123" font-family="Helvetica,sans-Serif" font-size="10.00">receive()</text>
<text xml:space="preserve" text-anchor="start" x="16.38" y="-107.75" font-family="Helvetica,sans-Serif" font-size="10.00">+</text>
<text xml:space="preserve" text-anchor="start" x="26.38" y="-107.75" font-family="Helvetica,sans-Serif" font-size="10.00">addCommand()</text>
<text xml:space="preserve" text-anchor="start" x="16.38" y="-92.5" font-family="Helvetica,sans-Serif" font-size="10.00">+</text>
<text xml:space="preserve" text-anchor="start" x="26.38" y="-92.5" font-family="Helvetica,sans-Serif" font-size="10.00">executeAll()</text>
<polygon fill="#666666" stroke="#666666" points="12.38,-180.25 12.38,-180.25 101.62,-180.25 101.62,-180.25 12.38,-180.25"/>
<polygon fill="#666666" stroke="#666666" points="12.38,-149.75 12.38,-149.75 24.38,-149.75 24.38,-149.75 12.38,-149.75"/>
<polygon fill="#666666" stroke="#666666" points="24.38,-149.75 24.38,-149.75 101.62,-149.75 101.62,-149.75 24.38,-149.75"/>
<polygon fill="none" stroke="#666666" points="12.38,-86.75 12.38,-197.5 101.62,-197.5 101.62,-86.75 12.38,-86.75"/>
</a>
</g>
</g>
<!-- Node2&#45;&gt;Node1 -->
<g id="edge1_Node000001_Node000002" class="edge">
<title>Node2&#45;&gt;Node1</title>
<g id="a_edge1_Node000001_Node000002"><a xlink:title=" ">
<path fill="none" stroke="#63b8ff" d="M57,-75.54C57,-66.31 57,-57.35 57,-49.65"/>
<polygon fill="none" stroke="#63b8ff" points="53.5,-75.36 57,-85.36 60.5,-75.36 53.5,-75.36"/>
</a>
</g>
</g>
<!-- Node3 -->
<g id="Node000003" class="node">
<title>Node3</title>
<g id="a_Node000003"><a xlink:href="../../df/d67/class_chat_room.html" target="_top" xlink:title="Abstract base class representing a chat room mediator.">
<polygon fill="white" stroke="none" points="114,-422.5 0,-422.5 0,-250.75 114,-250.75 114,-422.5"/>
<text xml:space="preserve" text-anchor="start" x="33.38" y="-409" font-family="Helvetica,sans-Serif" font-size="10.00">ChatRoom</text>
<text xml:space="preserve" text-anchor="start" x="5.5" y="-393.75" font-family="Helvetica,sans-Serif" font-size="10.00">&#45;</text>
<text xml:space="preserve" text-anchor="start" x="14" y="-393.75" font-family="Helvetica,sans-Serif" font-size="10.00">users</text>
<text xml:space="preserve" text-anchor="start" x="5.5" y="-378.5" font-family="Helvetica,sans-Serif" font-size="10.00">&#45;</text>
<text xml:space="preserve" text-anchor="start" x="14" y="-378.5" font-family="Helvetica,sans-Serif" font-size="10.00">numUsers</text>
<text xml:space="preserve" text-anchor="start" x="5.5" y="-363.25" font-family="Helvetica,sans-Serif" font-size="10.00">&#45;</text>
<text xml:space="preserve" text-anchor="start" x="14" y="-363.25" font-family="Helvetica,sans-Serif" font-size="10.00">chatHistory</text>
<text xml:space="preserve" text-anchor="start" x="4" y="-348" font-family="Helvetica,sans-Serif" font-size="10.00">+</text>
<text xml:space="preserve" text-anchor="start" x="14" y="-348" font-family="Helvetica,sans-Serif" font-size="10.00">registerUser()</text>
<text xml:space="preserve" text-anchor="start" x="4" y="-332.75" font-family="Helvetica,sans-Serif" font-size="10.00">+</text>
<text xml:space="preserve" text-anchor="start" x="14" y="-332.75" font-family="Helvetica,sans-Serif" font-size="10.00">sendMessage()</text>
<text xml:space="preserve" text-anchor="start" x="4" y="-317.5" font-family="Helvetica,sans-Serif" font-size="10.00">+</text>
<text xml:space="preserve" text-anchor="start" x="14" y="-317.5" font-family="Helvetica,sans-Serif" font-size="10.00">saveMessage()</text>
<text xml:space="preserve" text-anchor="start" x="4" y="-302.25" font-family="Helvetica,sans-Serif" font-size="10.00">+</text>
<text xml:space="preserve" text-anchor="start" x="14" y="-302.25" font-family="Helvetica,sans-Serif" font-size="10.00">removeUser()</text>
<text xml:space="preserve" text-anchor="start" x="4" y="-287" font-family="Helvetica,sans-Serif" font-size="10.00">+</text>
<text xml:space="preserve" text-anchor="start" x="14" y="-287" font-family="Helvetica,sans-Serif" font-size="10.00">getUsers()</text>
<text xml:space="preserve" text-anchor="start" x="4" y="-271.75" font-family="Helvetica,sans-Serif" font-size="10.00">+</text>
<text xml:space="preserve" text-anchor="start" x="14" y="-271.75" font-family="Helvetica,sans-Serif" font-size="10.00">incrementNumUsers()</text>
<text xml:space="preserve" text-anchor="start" x="4" y="-256.5" font-family="Helvetica,sans-Serif" font-size="10.00">+</text>
<text xml:space="preserve" text-anchor="start" x="14" y="-256.5" font-family="Helvetica,sans-Serif" font-size="10.00">getNumUsers()</text>
<polygon fill="#666666" stroke="#666666" points="0,-405.25 0,-405.25 114,-405.25 114,-405.25 0,-405.25"/>
<polygon fill="#666666" stroke="#666666" points="0,-359.5 0,-359.5 12,-359.5 12,-359.5 0,-359.5"/>
<polygon fill="#666666" stroke="#666666" points="12,-359.5 12,-359.5 114,-359.5 114,-359.5 12,-359.5"/>
<polygon fill="none" stroke="#666666" points="0,-250.75 0,-422.5 114,-422.5 114,-250.75 0,-250.75"/>
</a>
</g>
</g>
<!-- Node3&#45;&gt;Node2 -->
<g id="edge2_Node000002_Node000003" class="edge">
<title>Node3&#45;&gt;Node2</title>
<g id="a_edge2_Node000002_Node000003"><a xlink:title=" ">
<path fill="none" stroke="#63b8ff" d="M57,-250.91C57,-237.29 57,-223.36 57,-210.23"/>
<polygon fill="none" stroke="#63b8ff" points="57,-210.31 53,-204.31 57,-198.31 61,-204.31 57,-210.31"/>
</a>
</g>
<text xml:space="preserve" text-anchor="start" x="60" y="-220.25" font-family="Helvetica,sans-Serif" font-size="10.00" fill="grey">#chatRooms</text>
</g>
</g>
</svg>
