<?xml version="1.0" encoding="UTF-8" standalone="no"?>
<!DOCTYPE svg PUBLIC "-//W3C//DTD SVG 1.1//EN"
 "http://www.w3.org/Graphics/SVG/1.1/DTD/svg11.dtd">
<!-- Generated by graphviz version 14.0.0 (20250921.2048)
 -->
<!-- Title: Mediator.h Pages: 1 -->
<svg width="324pt" height="138pt"
 viewBox="0.00 0.00 324.00 138.00" xmlns="http://www.w3.org/2000/svg" xmlns:xlink="http://www.w3.org/1999/xlink">
<g id="graph0" class="graph" transform="scale(1 1) rotate(0) translate(4 133.75)">
<title>Mediator.h</title>
<!-- Node1 -->
<g id="Node000001" class="node">
<title>Node1</title>
<g id="a_Node000001"><a xlink:title="Defines the ChatRoom and Users classes along with specific implementations.">
<polygon fill="#999999" stroke="#666666" points="148.75,-129.75 87.75,-129.75 87.75,-110.5 148.75,-110.5 148.75,-129.75"/>
<text xml:space="preserve" text-anchor="middle" x="118.25" y="-116.25" font-family="Helvetica,sans-Serif" font-size="10.00">Mediator.h</text>
</a>
</g>
</g>
<!-- Node2 -->
<g id="Node000002" class="node">
<title>Node2</title>
<g id="a_Node000002"><a xlink:title=" ">
<polygon fill="#e0e0e0" stroke="#999999" points="153.25,-19.25 113.25,-19.25 113.25,0 153.25,0 153.25,-19.25"/>
<text xml:space="preserve" text-anchor="middle" x="133.25" y="-5.75" font-family="Helvetica,sans-Serif" font-size="10.00">string</text>
</a>
</g>
</g>
<!-- Node1&#45;&gt;Node2 -->
<g id="edge1_Node000001_Node000002" class="edge">
<title>Node1&#45;&gt;Node2</title>
<g id="a_edge1_Node000001_Node000002"><a xlink:title=" ">
<path fill="none" stroke="#63b8ff" d="M87.39,-114.19C46.44,-106.26 -18.11,-88.14 5.25,-55.25 27.03,-24.59 71.49,-14.82 101.83,-11.81"/>
<polygon fill="#63b8ff" stroke="#63b8ff" points="101.87,-15.31 111.57,-11.05 101.33,-8.33 101.87,-15.31"/>
</a>
</g>
</g>
<!-- Node3 -->
<g id="Node000003" class="node">
<title>Node3</title>
<g id="a_Node000003"><a xlink:title=" ">
<polygon fill="#e0e0e0" stroke="#999999" points="57.75,-74.5 14.75,-74.5 14.75,-55.25 57.75,-55.25 57.75,-74.5"/>
<text xml:space="preserve" text-anchor="middle" x="36.25" y="-61" font-family="Helvetica,sans-Serif" font-size="10.00">vector</text>
</a>
</g>
</g>
<!-- Node1&#45;&gt;Node3 -->
<g id="edge2_Node000001_Node000003" class="edge">
<title>Node1&#45;&gt;Node3</title>
<g id="a_edge2_Node000001_Node000003"><a xlink:title=" ">
<path fill="none" stroke="#63b8ff" d="M104.34,-110.09C92.09,-102.14 73.99,-90.39 59.54,-81"/>
<polygon fill="#63b8ff" stroke="#63b8ff" points="61.79,-78.29 51.5,-75.78 57.98,-84.16 61.79,-78.29"/>
</a>
</g>
</g>
<!-- Node4 -->
<g id="Node000004" class="node">
<title>Node4</title>
<g id="a_Node000004"><a xlink:title=" ">
<polygon fill="#e0e0e0" stroke="#999999" points="110.62,-74.5 75.87,-74.5 75.87,-55.25 110.62,-55.25 110.62,-74.5"/>
<text xml:space="preserve" text-anchor="middle" x="93.25" y="-61" font-family="Helvetica,sans-Serif" font-size="10.00">map</text>
</a>
</g>
</g>
<!-- Node1&#45;&gt;Node4 -->
<g id="edge3_Node000001_Node000004" class="edge">
<title>Node1&#45;&gt;Node4</title>
<g id="a_edge3_Node000001_Node000004"><a xlink:title=" ">
<path fill="none" stroke="#63b8ff" d="M114.12,-110.33C110.92,-103.51 106.36,-93.81 102.32,-85.2"/>
<polygon fill="#63b8ff" stroke="#63b8ff" points="105.53,-83.79 98.11,-76.23 99.19,-86.77 105.53,-83.79"/>
</a>
</g>
</g>
<!-- Node5 -->
<g id="Node000005" class="node">
<title>Node5</title>
<g id="a_Node000005"><a xlink:title=" ">
<polygon fill="#e0e0e0" stroke="#999999" points="157.65,-74.5 128.85,-74.5 128.85,-55.25 157.65,-55.25 157.65,-74.5"/>
<text xml:space="preserve" text-anchor="middle" x="143.25" y="-61" font-family="Helvetica,sans-Serif" font-size="10.00">list</text>
</a>
</g>
</g>
<!-- Node1&#45;&gt;Node5 -->
<g id="edge4_Node000001_Node000005" class="edge">
<title>Node1&#45;&gt;Node5</title>
<g id="a_edge4_Node000001_Node000005"><a xlink:title=" ">
<path fill="none" stroke="#63b8ff" d="M122.38,-110.33C125.58,-103.51 130.14,-93.81 134.17,-85.2"/>
<polygon fill="#63b8ff" stroke="#63b8ff" points="137.31,-86.77 138.39,-76.23 130.97,-83.79 137.31,-86.77"/>
</a>
</g>
</g>
<!-- Node6 -->
<g id="Node000006" class="node">
<title>Node6</title>
<g id="a_Node000006"><a xlink:title=" ">
<polygon fill="#e0e0e0" stroke="#999999" points="229,-74.5 175.5,-74.5 175.5,-55.25 229,-55.25 229,-74.5"/>
<text xml:space="preserve" text-anchor="middle" x="202.25" y="-61" font-family="Helvetica,sans-Serif" font-size="10.00">iostream</text>
</a>
</g>
</g>
<!-- Node1&#45;&gt;Node6 -->
<g id="edge5_Node000001_Node000006" class="edge">
<title>Node1&#45;&gt;Node6</title>
<g id="a_edge5_Node000001_Node000006"><a xlink:title=" ">
<path fill="none" stroke="#63b8ff" d="M132.5,-110.09C145.05,-102.14 163.58,-90.39 178.39,-81"/>
<polygon fill="#63b8ff" stroke="#63b8ff" points="180.08,-84.07 186.65,-75.76 176.33,-78.16 180.08,-84.07"/>
</a>
</g>
</g>
<!-- Node7 -->
<g id="Node000007" class="node">
<title>Node7</title>
<g id="a_Node000007"><a xlink:href="_command_8h.html" target="_top" xlink:title=" ">
<polygon fill="white" stroke="#666666" points="315.87,-74.5 246.62,-74.5 246.62,-55.25 315.87,-55.25 315.87,-74.5"/>
<text xml:space="preserve" text-anchor="middle" x="281.25" y="-61" font-family="Helvetica,sans-Serif" font-size="10.00">Command.h</text>
</a>
</g>
</g>
<!-- Node1&#45;&gt;Node7 -->
<g id="edge6_Node000001_Node000007" class="edge">
<title>Node1&#45;&gt;Node7</title>
<g id="a_edge6_Node000001_Node000007"><a xlink:title=" ">
<path fill="none" stroke="#63b8ff" d="M145.9,-110.09C172.48,-101.41 212.88,-88.21 242.63,-78.49"/>
<polygon fill="#63b8ff" stroke="#63b8ff" points="243.6,-81.85 252.02,-75.42 241.43,-75.2 243.6,-81.85"/>
</a>
</g>
</g>
<!-- Node7&#45;&gt;Node2 -->
<g id="edge7_Node000007_Node000002" class="edge">
<title>Node7&#45;&gt;Node2</title>
<g id="a_edge7_Node000007_Node000002"><a xlink:title=" ">
<path fill="none" stroke="#63b8ff" d="M256.14,-54.84C230.77,-45.71 191.53,-31.59 164.23,-21.77"/>
<polygon fill="#63b8ff" stroke="#63b8ff" points="165.72,-18.59 155.13,-18.5 163.35,-25.18 165.72,-18.59"/>
</a>
</g>
</g>
</g>
</svg>
