<?xml version="1.0" encoding="UTF-8" standalone="no"?>
<!DOCTYPE svg PUBLIC "-//W3C//DTD SVG 1.1//EN"
 "http://www.w3.org/Graphics/SVG/1.1/DTD/svg11.dtd">
<!-- Generated by graphviz version 14.0.0 (20250921.2048)
 -->
<!-- Title: Name2 Pages: 1 -->
<svg width="97pt" height="220pt"
 viewBox="0.00 0.00 97.00 220.00" xmlns="http://www.w3.org/2000/svg" xmlns:xlink="http://www.w3.org/1999/xlink">
<g id="graph0" class="graph" transform="scale(1 1) rotate(0) translate(4 215.75)">
<title>Name2</title>
<!-- Node1 -->
<g id="Node000001" class="node">
<title>Node1</title>
<g id="a_Node000001"><a xlink:title="Example user subclass: Name2.">
<polygon fill="#999999" stroke="none" points="64.38,-49.75 24.88,-49.75 24.88,0 64.38,0 64.38,-49.75"/>
<text xml:space="preserve" text-anchor="start" x="28.88" y="-36.25" font-family="Helvetica,sans-Serif" font-size="10.00">Name2</text>
<text xml:space="preserve" text-anchor="start" x="43.12" y="-21" font-family="Helvetica,sans-Serif" font-size="10.00"> </text>
<text xml:space="preserve" text-anchor="start" x="43.12" y="-5.75" font-family="Helvetica,sans-Serif" font-size="10.00"> </text>
<polygon fill="#666666" stroke="#666666" points="24.88,-32.5 24.88,-32.5 64.38,-32.5 64.38,-32.5 24.88,-32.5"/>
<polygon fill="#666666" stroke="#666666" points="24.88,-17.25 24.88,-17.25 64.38,-17.25 64.38,-17.25 24.88,-17.25"/>
<polygon fill="none" stroke="#666666" points="24.88,0 24.88,-49.75 64.38,-49.75 64.38,0 24.88,0"/>
</a>
</g>
</g>
<!-- Node2 -->
<g id="Node000002" class="node">
<title>Node2</title>
<g id="a_Node000002"><a xlink:href="class_users.html" target="_top" xlink:title="Represents a user that participates in a chat room.">
<polygon fill="white" stroke="none" points="89.25,-211.75 0,-211.75 0,-85.75 89.25,-85.75 89.25,-211.75"/>
<text xml:space="preserve" text-anchor="start" x="31.5" y="-198.25" font-family="Helvetica,sans-Serif" font-size="10.00">Users</text>
<text xml:space="preserve" text-anchor="start" x="4.38" y="-183" font-family="Helvetica,sans-Serif" font-size="10.00">#</text>
<text xml:space="preserve" text-anchor="start" x="14" y="-183" font-family="Helvetica,sans-Serif" font-size="10.00">chatRooms</text>
<text xml:space="preserve" text-anchor="start" x="4.38" y="-167.75" font-family="Helvetica,sans-Serif" font-size="10.00">#</text>
<text xml:space="preserve" text-anchor="start" x="14" y="-167.75" font-family="Helvetica,sans-Serif" font-size="10.00">name</text>
<text xml:space="preserve" text-anchor="start" x="4.38" y="-152.5" font-family="Helvetica,sans-Serif" font-size="10.00">#</text>
<text xml:space="preserve" text-anchor="start" x="14" y="-152.5" font-family="Helvetica,sans-Serif" font-size="10.00">commandQueue</text>
<text xml:space="preserve" text-anchor="start" x="4" y="-137.25" font-family="Helvetica,sans-Serif" font-size="10.00">+</text>
<text xml:space="preserve" text-anchor="start" x="14" y="-137.25" font-family="Helvetica,sans-Serif" font-size="10.00">send()</text>
<text xml:space="preserve" text-anchor="start" x="4" y="-122" font-family="Helvetica,sans-Serif" font-size="10.00">+</text>
<text xml:space="preserve" text-anchor="start" x="14" y="-122" font-family="Helvetica,sans-Serif" font-size="10.00">receive()</text>
<text xml:space="preserve" text-anchor="start" x="4" y="-106.75" font-family="Helvetica,sans-Serif" font-size="10.00">+</text>
<text xml:space="preserve" text-anchor="start" x="14" y="-106.75" font-family="Helvetica,sans-Serif" font-size="10.00">addCommand()</text>
<text xml:space="preserve" text-anchor="start" x="4" y="-91.5" font-family="Helvetica,sans-Serif" font-size="10.00">+</text>
<text xml:space="preserve" text-anchor="start" x="14" y="-91.5" font-family="Helvetica,sans-Serif" font-size="10.00">executeAll()</text>
<polygon fill="#666666" stroke="#666666" points="0,-194.5 0,-194.5 89.25,-194.5 89.25,-194.5 0,-194.5"/>
<polygon fill="#666666" stroke="#666666" points="0,-148.75 0,-148.75 12,-148.75 12,-148.75 0,-148.75"/>
<polygon fill="#666666" stroke="#666666" points="12,-148.75 12,-148.75 89.25,-148.75 89.25,-148.75 12,-148.75"/>
<polygon fill="none" stroke="#666666" points="0,-85.75 0,-211.75 89.25,-211.75 89.25,-85.75 0,-85.75"/>
</a>
</g>
</g>
<!-- Node2&#45;&gt;Node1 -->
<g id="edge1_Node000001_Node000002" class="edge">
<title>Node2&#45;&gt;Node1</title>
<g id="a_edge1_Node000001_Node000002"><a xlink:title=" ">
<path fill="none" stroke="#63b8ff" d="M44.62,-74.6C44.62,-65.63 44.62,-57.03 44.62,-49.62"/>
<polygon fill="none" stroke="#63b8ff" points="41.13,-74.58 44.63,-84.58 48.13,-74.58 41.13,-74.58"/>
</a>
</g>
</g>
</g>
</svg>
