<?xml version="1.0" encoding="UTF-8" standalone="no"?>
<!DOCTYPE svg PUBLIC "-//W3C//DTD SVG 1.1//EN"
 "http://www.w3.org/Graphics/SVG/1.1/DTD/svg11.dtd">
<!-- Generated by graphviz version 14.0.0 (20250921.2048)
 -->
<!-- Title: LogMessageCommand Pages: 1 -->
<svg width="133pt" height="205pt"
 viewBox="0.00 0.00 133.00 205.00" xmlns="http://www.w3.org/2000/svg" xmlns:xlink="http://www.w3.org/1999/xlink">
<g id="graph0" class="graph" transform="scale(1 1) rotate(0) translate(4 200.5)">
<title>LogMessageCommand</title>
<!-- Node1 -->
<g id="Node000001" class="node">
<title>Node1</title>
<g id="a_Node000001"><a xlink:title=" ">
<polygon fill="#999999" stroke="none" points="124.5,-65 0,-65 0,0 124.5,0 124.5,-65"/>
<text xml:space="preserve" text-anchor="start" x="12" y="-51.5" font-family="Helvetica,sans-Serif" font-size="10.00">LogMessageCommand</text>
<text xml:space="preserve" text-anchor="start" x="60.75" y="-36.25" font-family="Helvetica,sans-Serif" font-size="10.00"> </text>
<text xml:space="preserve" text-anchor="start" x="4" y="-21" font-family="Helvetica,sans-Serif" font-size="10.00">+</text>
<text xml:space="preserve" text-anchor="start" x="14" y="-21" font-family="Helvetica,sans-Serif" font-size="10.00">LogMessageCommand()</text>
<text xml:space="preserve" text-anchor="start" x="4" y="-5.75" font-family="Helvetica,sans-Serif" font-size="10.00">+</text>
<text xml:space="preserve" text-anchor="start" x="14" y="-5.75" font-family="Helvetica,sans-Serif" font-size="10.00">execute()</text>
<polygon fill="#666666" stroke="#666666" points="0,-47.75 0,-47.75 124.5,-47.75 124.5,-47.75 0,-47.75"/>
<polygon fill="#666666" stroke="#666666" points="0,-32.5 0,-32.5 124.5,-32.5 124.5,-32.5 0,-32.5"/>
<polygon fill="none" stroke="#666666" points="0,0 0,-65 124.5,-65 124.5,0 0,0"/>
</a>
</g>
</g>
<!-- Node2 -->
<g id="Node000002" class="node">
<title>Node2</title>
<g id="a_Node000002"><a xlink:href="class_command.html" target="_top" xlink:title=" ">
<polygon fill="white" stroke="none" points="99.75,-196.5 24.75,-196.5 24.75,-101 99.75,-101 99.75,-196.5"/>
<text xml:space="preserve" text-anchor="start" x="39.75" y="-183" font-family="Helvetica,sans-Serif" font-size="10.00">Command</text>
<text xml:space="preserve" text-anchor="start" x="29.12" y="-167.75" font-family="Helvetica,sans-Serif" font-size="10.00">#</text>
<text xml:space="preserve" text-anchor="start" x="38.75" y="-167.75" font-family="Helvetica,sans-Serif" font-size="10.00">chatRoom</text>
<text xml:space="preserve" text-anchor="start" x="29.12" y="-152.5" font-family="Helvetica,sans-Serif" font-size="10.00">#</text>
<text xml:space="preserve" text-anchor="start" x="38.75" y="-152.5" font-family="Helvetica,sans-Serif" font-size="10.00">fromUser</text>
<text xml:space="preserve" text-anchor="start" x="29.12" y="-137.25" font-family="Helvetica,sans-Serif" font-size="10.00">#</text>
<text xml:space="preserve" text-anchor="start" x="38.75" y="-137.25" font-family="Helvetica,sans-Serif" font-size="10.00">message</text>
<text xml:space="preserve" text-anchor="start" x="28.75" y="-122" font-family="Helvetica,sans-Serif" font-size="10.00">+</text>
<text xml:space="preserve" text-anchor="start" x="38.75" y="-122" font-family="Helvetica,sans-Serif" font-size="10.00">~Command()</text>
<text xml:space="preserve" text-anchor="start" x="28.75" y="-106.75" font-family="Helvetica,sans-Serif" font-size="10.00">+</text>
<text xml:space="preserve" text-anchor="start" x="38.75" y="-106.75" font-family="Helvetica,sans-Serif" font-size="10.00">execute()</text>
<polygon fill="#666666" stroke="#666666" points="24.75,-179.25 24.75,-179.25 99.75,-179.25 99.75,-179.25 24.75,-179.25"/>
<polygon fill="#666666" stroke="#666666" points="24.75,-133.5 24.75,-133.5 36.75,-133.5 36.75,-133.5 24.75,-133.5"/>
<polygon fill="#666666" stroke="#666666" points="36.75,-133.5 36.75,-133.5 99.75,-133.5 99.75,-133.5 36.75,-133.5"/>
<polygon fill="none" stroke="#666666" points="24.75,-101 24.75,-196.5 99.75,-196.5 99.75,-101 24.75,-101"/>
</a>
</g>
</g>
<!-- Node2&#45;&gt;Node1 -->
<g id="edge1_Node000001_Node000002" class="edge">
<title>Node2&#45;&gt;Node1</title>
<g id="a_edge1_Node000001_Node000002"><a xlink:title=" ">
<path fill="none" stroke="#63b8ff" d="M62.25,-89.98C62.25,-81.34 62.25,-72.72 62.25,-64.91"/>
<polygon fill="none" stroke="#63b8ff" points="58.75,-89.77 62.25,-99.77 65.75,-89.77 58.75,-89.77"/>
</a>
</g>
</g>
</g>
</svg>
