<?xml version="1.0" encoding="UTF-8" standalone="no"?>
<!DOCTYPE svg PUBLIC "-//W3C//DTD SVG 1.1//EN"
 "http://www.w3.org/Graphics/SVG/1.1/DTD/svg11.dtd">
<!-- Generated by graphviz version 14.0.0 (20250921.2048)
 -->
<!-- Title: Graphical Class Hierarchy Pages: 1 -->
<svg width="134pt" height="101pt"
 viewBox="0.00 0.00 134.00 101.00" xmlns="http://www.w3.org/2000/svg" xmlns:xlink="http://www.w3.org/1999/xlink">
<g id="graph0" class="graph" transform="scale(1 1) rotate(0) translate(4 97.25)">
<title>Graphical Class Hierarchy</title>
<!-- Node0 -->
<g id="Node000000" class="node">
<title>Node0</title>
<g id="a_Node000000"><a xlink:href="class_users.html" target="_top" xlink:title="Represents a user that participates in a chat room.">
<polygon fill="white" stroke="#666666" points="42.25,-56.25 0,-56.25 0,-37 42.25,-37 42.25,-56.25"/>
<text xml:space="preserve" text-anchor="middle" x="21.12" y="-42.75" font-family="Helvetica,sans-Serif" font-size="10.00">Users</text>
</a>
</g>
</g>
<!-- Node1 -->
<g id="Node000001" class="node">
<title>Node1</title>
<g id="a_Node000001"><a xlink:href="class_name1.html" target="_top" xlink:title="Example user subclass: Name1.">
<polygon fill="white" stroke="#666666" points="125.75,-93.25 78.25,-93.25 78.25,-74 125.75,-74 125.75,-93.25"/>
<text xml:space="preserve" text-anchor="middle" x="102" y="-79.75" font-family="Helvetica,sans-Serif" font-size="10.00">Name1</text>
</a>
</g>
</g>
<!-- Node0&#45;&gt;Node1 -->
<g id="edge5_Node000000_Node000001" class="edge">
<title>Node0&#45;&gt;Node1</title>
<g id="a_edge5_Node000000_Node000001"><a xlink:title=" ">
<path fill="none" stroke="#63b8ff" d="M52.61,-60.93C61.64,-65.16 71.33,-69.71 79.65,-73.61"/>
<polygon fill="#63b8ff" stroke="#63b8ff" points="54.35,-57.87 43.81,-56.8 51.37,-64.21 54.35,-57.87"/>
</a>
</g>
</g>
<!-- Node2 -->
<g id="Node000002" class="node">
<title>Node2</title>
<g id="a_Node000002"><a xlink:href="class_name2.html" target="_top" xlink:title="Example user subclass: Name2.">
<polygon fill="white" stroke="#666666" points="125.75,-56.25 78.25,-56.25 78.25,-37 125.75,-37 125.75,-56.25"/>
<text xml:space="preserve" text-anchor="middle" x="102" y="-42.75" font-family="Helvetica,sans-Serif" font-size="10.00">Name2</text>
</a>
</g>
</g>
<!-- Node0&#45;&gt;Node2 -->
<g id="edge6_Node000000_Node000002" class="edge">
<title>Node0&#45;&gt;Node2</title>
<g id="a_edge6_Node000000_Node000002"><a xlink:title=" ">
<path fill="none" stroke="#63b8ff" d="M53.79,-46.62C61.87,-46.62 70.41,-46.62 77.97,-46.62"/>
<polygon fill="#63b8ff" stroke="#63b8ff" points="53.95,-43.13 43.95,-46.63 53.95,-50.13 53.95,-43.13"/>
</a>
</g>
</g>
<!-- Node3 -->
<g id="Node000003" class="node">
<title>Node3</title>
<g id="a_Node000003"><a xlink:href="class_name3.html" target="_top" xlink:title="Example user subclass: Name3.">
<polygon fill="white" stroke="#666666" points="125.75,-19.25 78.25,-19.25 78.25,0 125.75,0 125.75,-19.25"/>
<text xml:space="preserve" text-anchor="middle" x="102" y="-5.75" font-family="Helvetica,sans-Serif" font-size="10.00">Name3</text>
</a>
</g>
</g>
<!-- Node0&#45;&gt;Node3 -->
<g id="edge7_Node000000_Node000003" class="edge">
<title>Node0&#45;&gt;Node3</title>
<g id="a_edge7_Node000000_Node000003"><a xlink:title=" ">
<path fill="none" stroke="#63b8ff" d="M52.61,-32.32C61.64,-28.09 71.33,-23.54 79.65,-19.64"/>
<polygon fill="#63b8ff" stroke="#63b8ff" points="51.37,-29.04 43.81,-36.45 54.35,-35.38 51.37,-29.04"/>
</a>
</g>
</g>
</g>
</svg>
