<?xml version="1.0" encoding="UTF-8" standalone="no"?>
<!DOCTYPE svg PUBLIC "-//W3C//DTD SVG 1.1//EN"
 "http://www.w3.org/Graphics/SVG/1.1/DTD/svg11.dtd">
<!-- Generated by graphviz version 14.0.0 (20250921.2048)
 -->
<!-- Title: LogMessageCommand Pages: 1 -->
<svg width="218pt" height="534pt"
 viewBox="0.00 0.00 218.00 534.00" xmlns="http://www.w3.org/2000/svg" xmlns:xlink="http://www.w3.org/1999/xlink">
<g id="graph0" class="graph" transform="scale(1 1) rotate(0) translate(4 529.5)">
<title>LogMessageCommand</title>
<!-- Node1 -->
<g id="Node000001" class="node">
<title>Node1</title>
<g id="a_Node000001"><a xlink:title=" ">
<polygon fill="#999999" stroke="none" points="124.5,-65 0,-65 0,0 124.5,0 124.5,-65"/>
<text xml:space="preserve" text-anchor="start" x="12" y="-51.5" font-family="Helvetica,sans-Serif" font-size="10.00">LogMessageCommand</text>
<text xml:space="preserve" text-anchor="start" x="60.75" y="-36.25" font-family="Helvetica,sans-Serif" font-size="10.00"> </text>
<text xml:space="preserve" text-anchor="start" x="4" y="-21" font-family="Helvetica,sans-Serif" font-size="10.00">+</text>
<text xml:space="preserve" text-anchor="start" x="14" y="-21" font-family="Helvetica,sans-Serif" font-size="10.00">LogMessageCommand()</text>
<text xml:space="preserve" text-anchor="start" x="4" y="-5.75" font-family="Helvetica,sans-Serif" font-size="10.00">+</text>
<text xml:space="preserve" text-anchor="start" x="14" y="-5.75" font-family="Helvetica,sans-Serif" font-size="10.00">execute()</text>
<polygon fill="#666666" stroke="#666666" points="0,-47.75 0,-47.75 124.5,-47.75 124.5,-47.75 0,-47.75"/>
<polygon fill="#666666" stroke="#666666" points="0,-32.5 0,-32.5 124.5,-32.5 124.5,-32.5 0,-32.5"/>
<polygon fill="none" stroke="#666666" points="0,0 0,-65 124.5,-65 124.5,0 0,0"/>
</a>
</g>
</g>
<!-- Node2 -->
<g id="Node000002" class="node">
<title>Node2</title>
<g id="a_Node000002"><a xlink:href="class_command.html" target="_top" xlink:title=" ">
<polygon fill="white" stroke="none" points="99.75,-167 24.75,-167 24.75,-102 99.75,-102 99.75,-167"/>
<text xml:space="preserve" text-anchor="start" x="39.75" y="-153.5" font-family="Helvetica,sans-Serif" font-size="10.00">Command</text>
<text xml:space="preserve" text-anchor="start" x="29.12" y="-138.25" font-family="Helvetica,sans-Serif" font-size="10.00">#</text>
<text xml:space="preserve" text-anchor="start" x="38.75" y="-138.25" font-family="Helvetica,sans-Serif" font-size="10.00">message</text>
<text xml:space="preserve" text-anchor="start" x="28.75" y="-123" font-family="Helvetica,sans-Serif" font-size="10.00">+</text>
<text xml:space="preserve" text-anchor="start" x="38.75" y="-123" font-family="Helvetica,sans-Serif" font-size="10.00">~Command()</text>
<text xml:space="preserve" text-anchor="start" x="28.75" y="-107.75" font-family="Helvetica,sans-Serif" font-size="10.00">+</text>
<text xml:space="preserve" text-anchor="start" x="38.75" y="-107.75" font-family="Helvetica,sans-Serif" font-size="10.00">execute()</text>
<polygon fill="#bfbfbf" stroke="#bfbfbf" points="24.75,-149.75 24.75,-149.75 99.75,-149.75 99.75,-149.75 24.75,-149.75"/>
<polygon fill="#bfbfbf" stroke="#bfbfbf" points="24.75,-134.5 24.75,-134.5 36.75,-134.5 36.75,-134.5 24.75,-134.5"/>
<polygon fill="#bfbfbf" stroke="#bfbfbf" points="36.75,-134.5 36.75,-134.5 99.75,-134.5 99.75,-134.5 36.75,-134.5"/>
<polygon fill="none" stroke="#bfbfbf" points="24.75,-102 24.75,-167 99.75,-167 99.75,-102 24.75,-102"/>
</a>
</g>
</g>
<!-- Node2&#45;&gt;Node1 -->
<g id="edge1_Node000001_Node000002" class="edge">
<title>Node2&#45;&gt;Node1</title>
<g id="a_edge1_Node000001_Node000002"><a xlink:title=" ">
<path fill="none" stroke="#63b8ff" d="M62.25,-90.88C62.25,-82.11 62.25,-73.03 62.25,-64.75"/>
<polygon fill="none" stroke="#63b8ff" points="58.75,-90.62 62.25,-100.62 65.75,-90.62 58.75,-90.62"/>
</a>
</g>
</g>
<!-- Node3 -->
<g id="Node000003" class="node">
<title>Node3</title>
<g id="a_Node000003"><a xlink:href="class_chat_room.html" target="_top" xlink:title="Abstract base class representing a chat room mediator.">
<polygon fill="white" stroke="none" points="119.25,-525.5 5.25,-525.5 5.25,-384.25 119.25,-384.25 119.25,-525.5"/>
<text xml:space="preserve" text-anchor="start" x="38.62" y="-512" font-family="Helvetica,sans-Serif" font-size="10.00">ChatRoom</text>
<text xml:space="preserve" text-anchor="start" x="60.75" y="-496.75" font-family="Helvetica,sans-Serif" font-size="10.00"> </text>
<text xml:space="preserve" text-anchor="start" x="9.25" y="-481.5" font-family="Helvetica,sans-Serif" font-size="10.00">+</text>
<text xml:space="preserve" text-anchor="start" x="19.25" y="-481.5" font-family="Helvetica,sans-Serif" font-size="10.00">registerUser()</text>
<text xml:space="preserve" text-anchor="start" x="9.25" y="-466.25" font-family="Helvetica,sans-Serif" font-size="10.00">+</text>
<text xml:space="preserve" text-anchor="start" x="19.25" y="-466.25" font-family="Helvetica,sans-Serif" font-size="10.00">sendMessage()</text>
<text xml:space="preserve" text-anchor="start" x="9.25" y="-451" font-family="Helvetica,sans-Serif" font-size="10.00">+</text>
<text xml:space="preserve" text-anchor="start" x="19.25" y="-451" font-family="Helvetica,sans-Serif" font-size="10.00">saveMessage()</text>
<text xml:space="preserve" text-anchor="start" x="9.25" y="-435.75" font-family="Helvetica,sans-Serif" font-size="10.00">+</text>
<text xml:space="preserve" text-anchor="start" x="19.25" y="-435.75" font-family="Helvetica,sans-Serif" font-size="10.00">removeUser()</text>
<text xml:space="preserve" text-anchor="start" x="9.25" y="-420.5" font-family="Helvetica,sans-Serif" font-size="10.00">+</text>
<text xml:space="preserve" text-anchor="start" x="19.25" y="-420.5" font-family="Helvetica,sans-Serif" font-size="10.00">getUsers()</text>
<text xml:space="preserve" text-anchor="start" x="9.25" y="-405.25" font-family="Helvetica,sans-Serif" font-size="10.00">+</text>
<text xml:space="preserve" text-anchor="start" x="19.25" y="-405.25" font-family="Helvetica,sans-Serif" font-size="10.00">incrementNumUsers()</text>
<text xml:space="preserve" text-anchor="start" x="9.25" y="-390" font-family="Helvetica,sans-Serif" font-size="10.00">+</text>
<text xml:space="preserve" text-anchor="start" x="19.25" y="-390" font-family="Helvetica,sans-Serif" font-size="10.00">getNumUsers()</text>
<polygon fill="#666666" stroke="#666666" points="5.25,-508.25 5.25,-508.25 119.25,-508.25 119.25,-508.25 5.25,-508.25"/>
<polygon fill="#666666" stroke="#666666" points="5.25,-493 5.25,-493 119.25,-493 119.25,-493 5.25,-493"/>
<polygon fill="none" stroke="#666666" points="5.25,-384.25 5.25,-525.5 119.25,-525.5 119.25,-384.25 5.25,-384.25"/>
</a>
</g>
</g>
<!-- Node3&#45;&gt;Node2 -->
<g id="edge2_Node000002_Node000003" class="edge">
<title>Node3&#45;&gt;Node2</title>
<g id="a_edge2_Node000002_Node000003"><a xlink:title=" ">
<path fill="none" stroke="#63b8ff" d="M57.43,-384.38C56.42,-366.96 55.51,-348.3 55,-331 53.55,-281.8 52.9,-269.43 55,-220.25 55.57,-206.97 56.63,-192.55 57.77,-179.44"/>
<polygon fill="none" stroke="#63b8ff" points="57.75,-179.7 54.31,-173.36 58.84,-167.75 62.28,-174.09 57.75,-179.7"/>
</a>
</g>
<text xml:space="preserve" text-anchor="start" x="58" y="-271.75" font-family="Helvetica,sans-Serif" font-size="10.00" fill="grey">#chatRoom</text>
</g>
<!-- Node4 -->
<g id="Node000004" class="node">
<title>Node4</title>
<g id="a_Node000004"><a xlink:href="class_users.html" target="_top" xlink:title="Represents a user that participates in a chat room.">
<polygon fill="white" stroke="none" points="209.88,-331 120.62,-331 120.62,-220.25 209.88,-220.25 209.88,-331"/>
<text xml:space="preserve" text-anchor="start" x="152.12" y="-317.5" font-family="Helvetica,sans-Serif" font-size="10.00">Users</text>
<text xml:space="preserve" text-anchor="start" x="125" y="-302.25" font-family="Helvetica,sans-Serif" font-size="10.00">#</text>
<text xml:space="preserve" text-anchor="start" x="134.62" y="-302.25" font-family="Helvetica,sans-Serif" font-size="10.00">name</text>
<text xml:space="preserve" text-anchor="start" x="125" y="-287" font-family="Helvetica,sans-Serif" font-size="10.00">#</text>
<text xml:space="preserve" text-anchor="start" x="134.62" y="-287" font-family="Helvetica,sans-Serif" font-size="10.00">commandQueue</text>
<text xml:space="preserve" text-anchor="start" x="124.62" y="-271.75" font-family="Helvetica,sans-Serif" font-size="10.00">+</text>
<text xml:space="preserve" text-anchor="start" x="134.62" y="-271.75" font-family="Helvetica,sans-Serif" font-size="10.00">send()</text>
<text xml:space="preserve" text-anchor="start" x="124.62" y="-256.5" font-family="Helvetica,sans-Serif" font-size="10.00">+</text>
<text xml:space="preserve" text-anchor="start" x="134.62" y="-256.5" font-family="Helvetica,sans-Serif" font-size="10.00">receive()</text>
<text xml:space="preserve" text-anchor="start" x="124.62" y="-241.25" font-family="Helvetica,sans-Serif" font-size="10.00">+</text>
<text xml:space="preserve" text-anchor="start" x="134.62" y="-241.25" font-family="Helvetica,sans-Serif" font-size="10.00">addCommand()</text>
<text xml:space="preserve" text-anchor="start" x="124.62" y="-226" font-family="Helvetica,sans-Serif" font-size="10.00">+</text>
<text xml:space="preserve" text-anchor="start" x="134.62" y="-226" font-family="Helvetica,sans-Serif" font-size="10.00">executeAll()</text>
<polygon fill="#666666" stroke="#666666" points="120.62,-313.75 120.62,-313.75 209.88,-313.75 209.88,-313.75 120.62,-313.75"/>
<polygon fill="#666666" stroke="#666666" points="120.62,-283.25 120.62,-283.25 132.62,-283.25 132.62,-283.25 120.62,-283.25"/>
<polygon fill="#666666" stroke="#666666" points="132.62,-283.25 132.62,-283.25 209.88,-283.25 209.88,-283.25 132.62,-283.25"/>
<polygon fill="none" stroke="#666666" points="120.62,-220.25 120.62,-331 209.88,-331 209.88,-220.25 120.62,-220.25"/>
</a>
</g>
</g>
<!-- Node3&#45;&gt;Node4 -->
<g id="edge4_Node000004_Node000003" class="edge">
<title>Node3&#45;&gt;Node4</title>
<g id="a_edge4_Node000004_Node000003"><a xlink:title=" ">
<path fill="none" stroke="#63b8ff" d="M102.66,-384.33C110.8,-370.32 119.33,-355.65 127.37,-341.8"/>
<polygon fill="none" stroke="#63b8ff" points="127.23,-342.06 126.78,-334.86 133.26,-331.68 133.7,-338.88 127.23,-342.06"/>
</a>
</g>
<text xml:space="preserve" text-anchor="start" x="125.98" y="-353.75" font-family="Helvetica,sans-Serif" font-size="10.00" fill="grey">#chatRooms</text>
</g>
<!-- Node4&#45;&gt;Node2 -->
<g id="edge3_Node000002_Node000004" class="edge">
<title>Node4&#45;&gt;Node2</title>
<g id="a_edge3_Node000002_Node000004"><a xlink:title=" ">
<path fill="none" stroke="#63b8ff" d="M125.13,-220.44C114.52,-206.11 103.24,-190.86 93.2,-177.3"/>
<polygon fill="none" stroke="#63b8ff" points="93.13,-177.21 86.34,-174.77 85.99,-167.56 92.77,-170.01 93.13,-177.21"/>
</a>
</g>
<text xml:space="preserve" text-anchor="start" x="113.66" y="-189.75" font-family="Helvetica,sans-Serif" font-size="10.00" fill="grey">#fromUser</text>
</g>
</g>
</svg>
