<?xml version="1.0" encoding="UTF-8" standalone="no"?>
<!DOCTYPE svg PUBLIC "-//W3C//DTD SVG 1.1//EN"
 "http://www.w3.org/Graphics/SVG/1.1/DTD/svg11.dtd">
<!-- Generated by graphviz version 14.0.0 (20250921.2048)
 -->
<!-- Title: Command Pages: 1 -->
<svg width="213pt" height="432pt"
 viewBox="0.00 0.00 213.00 432.00" xmlns="http://www.w3.org/2000/svg" xmlns:xlink="http://www.w3.org/1999/xlink">
<g id="graph0" class="graph" transform="scale(1 1) rotate(0) translate(4 427.5)">
<title>Command</title>
<!-- Node1 -->
<g id="Node000001" class="node">
<title>Node1</title>
<g id="a_Node000001"><a xlink:title=" ">
<polygon fill="#999999" stroke="none" points="94.5,-65 19.5,-65 19.5,0 94.5,0 94.5,-65"/>
<text xml:space="preserve" text-anchor="start" x="34.5" y="-51.5" font-family="Helvetica,sans-Serif" font-size="10.00">Command</text>
<text xml:space="preserve" text-anchor="start" x="23.88" y="-36.25" font-family="Helvetica,sans-Serif" font-size="10.00">#</text>
<text xml:space="preserve" text-anchor="start" x="33.5" y="-36.25" font-family="Helvetica,sans-Serif" font-size="10.00">message</text>
<text xml:space="preserve" text-anchor="start" x="23.5" y="-21" font-family="Helvetica,sans-Serif" font-size="10.00">+</text>
<text xml:space="preserve" text-anchor="start" x="33.5" y="-21" font-family="Helvetica,sans-Serif" font-size="10.00">~Command()</text>
<text xml:space="preserve" text-anchor="start" x="23.5" y="-5.75" font-family="Helvetica,sans-Serif" font-size="10.00">+</text>
<text xml:space="preserve" text-anchor="start" x="33.5" y="-5.75" font-family="Helvetica,sans-Serif" font-size="10.00">execute()</text>
<polygon fill="#666666" stroke="#666666" points="19.5,-47.75 19.5,-47.75 94.5,-47.75 94.5,-47.75 19.5,-47.75"/>
<polygon fill="#666666" stroke="#666666" points="19.5,-32.5 19.5,-32.5 31.5,-32.5 31.5,-32.5 19.5,-32.5"/>
<polygon fill="#666666" stroke="#666666" points="31.5,-32.5 31.5,-32.5 94.5,-32.5 94.5,-32.5 31.5,-32.5"/>
<polygon fill="none" stroke="#666666" points="19.5,0 19.5,-65 94.5,-65 94.5,0 19.5,0"/>
</a>
</g>
</g>
<!-- Node2 -->
<g id="Node000002" class="node">
<title>Node2</title>
<g id="a_Node000002"><a xlink:href="class_chat_room.html" target="_top" xlink:title="Abstract base class representing a chat room mediator.">
<polygon fill="white" stroke="none" points="114,-423.5 0,-423.5 0,-282.25 114,-282.25 114,-423.5"/>
<text xml:space="preserve" text-anchor="start" x="33.38" y="-410" font-family="Helvetica,sans-Serif" font-size="10.00">ChatRoom</text>
<text xml:space="preserve" text-anchor="start" x="55.5" y="-394.75" font-family="Helvetica,sans-Serif" font-size="10.00"> </text>
<text xml:space="preserve" text-anchor="start" x="4" y="-379.5" font-family="Helvetica,sans-Serif" font-size="10.00">+</text>
<text xml:space="preserve" text-anchor="start" x="14" y="-379.5" font-family="Helvetica,sans-Serif" font-size="10.00">registerUser()</text>
<text xml:space="preserve" text-anchor="start" x="4" y="-364.25" font-family="Helvetica,sans-Serif" font-size="10.00">+</text>
<text xml:space="preserve" text-anchor="start" x="14" y="-364.25" font-family="Helvetica,sans-Serif" font-size="10.00">sendMessage()</text>
<text xml:space="preserve" text-anchor="start" x="4" y="-349" font-family="Helvetica,sans-Serif" font-size="10.00">+</text>
<text xml:space="preserve" text-anchor="start" x="14" y="-349" font-family="Helvetica,sans-Serif" font-size="10.00">saveMessage()</text>
<text xml:space="preserve" text-anchor="start" x="4" y="-333.75" font-family="Helvetica,sans-Serif" font-size="10.00">+</text>
<text xml:space="preserve" text-anchor="start" x="14" y="-333.75" font-family="Helvetica,sans-Serif" font-size="10.00">removeUser()</text>
<text xml:space="preserve" text-anchor="start" x="4" y="-318.5" font-family="Helvetica,sans-Serif" font-size="10.00">+</text>
<text xml:space="preserve" text-anchor="start" x="14" y="-318.5" font-family="Helvetica,sans-Serif" font-size="10.00">getUsers()</text>
<text xml:space="preserve" text-anchor="start" x="4" y="-303.25" font-family="Helvetica,sans-Serif" font-size="10.00">+</text>
<text xml:space="preserve" text-anchor="start" x="14" y="-303.25" font-family="Helvetica,sans-Serif" font-size="10.00">incrementNumUsers()</text>
<text xml:space="preserve" text-anchor="start" x="4" y="-288" font-family="Helvetica,sans-Serif" font-size="10.00">+</text>
<text xml:space="preserve" text-anchor="start" x="14" y="-288" font-family="Helvetica,sans-Serif" font-size="10.00">getNumUsers()</text>
<polygon fill="#666666" stroke="#666666" points="0,-406.25 0,-406.25 114,-406.25 114,-406.25 0,-406.25"/>
<polygon fill="#666666" stroke="#666666" points="0,-391 0,-391 114,-391 114,-391 0,-391"/>
<polygon fill="none" stroke="#666666" points="0,-282.25 0,-423.5 114,-423.5 114,-282.25 0,-282.25"/>
</a>
</g>
</g>
<!-- Node2&#45;&gt;Node1 -->
<g id="edge1_Node000001_Node000002" class="edge">
<title>Node2&#45;&gt;Node1</title>
<g id="a_edge1_Node000001_Node000002"><a xlink:title=" ">
<path fill="none" stroke="#63b8ff" d="M52.18,-282.38C51.17,-264.96 50.26,-246.3 49.75,-229 48.3,-179.8 47.65,-167.43 49.75,-118.25 50.32,-104.97 51.38,-90.55 52.52,-77.44"/>
<polygon fill="none" stroke="#63b8ff" points="52.5,-77.7 49.06,-71.36 53.59,-65.75 57.03,-72.09 52.5,-77.7"/>
</a>
</g>
<text xml:space="preserve" text-anchor="start" x="52.75" y="-169.75" font-family="Helvetica,sans-Serif" font-size="10.00" fill="grey">#chatRoom</text>
</g>
<!-- Node3 -->
<g id="Node000003" class="node">
<title>Node3</title>
<g id="a_Node000003"><a xlink:href="class_users.html" target="_top" xlink:title="Represents a user that participates in a chat room.">
<polygon fill="white" stroke="none" points="204.62,-229 115.38,-229 115.38,-118.25 204.62,-118.25 204.62,-229"/>
<text xml:space="preserve" text-anchor="start" x="146.88" y="-215.5" font-family="Helvetica,sans-Serif" font-size="10.00">Users</text>
<text xml:space="preserve" text-anchor="start" x="119.75" y="-200.25" font-family="Helvetica,sans-Serif" font-size="10.00">#</text>
<text xml:space="preserve" text-anchor="start" x="129.38" y="-200.25" font-family="Helvetica,sans-Serif" font-size="10.00">name</text>
<text xml:space="preserve" text-anchor="start" x="119.75" y="-185" font-family="Helvetica,sans-Serif" font-size="10.00">#</text>
<text xml:space="preserve" text-anchor="start" x="129.38" y="-185" font-family="Helvetica,sans-Serif" font-size="10.00">commandQueue</text>
<text xml:space="preserve" text-anchor="start" x="119.38" y="-169.75" font-family="Helvetica,sans-Serif" font-size="10.00">+</text>
<text xml:space="preserve" text-anchor="start" x="129.38" y="-169.75" font-family="Helvetica,sans-Serif" font-size="10.00">send()</text>
<text xml:space="preserve" text-anchor="start" x="119.38" y="-154.5" font-family="Helvetica,sans-Serif" font-size="10.00">+</text>
<text xml:space="preserve" text-anchor="start" x="129.38" y="-154.5" font-family="Helvetica,sans-Serif" font-size="10.00">receive()</text>
<text xml:space="preserve" text-anchor="start" x="119.38" y="-139.25" font-family="Helvetica,sans-Serif" font-size="10.00">+</text>
<text xml:space="preserve" text-anchor="start" x="129.38" y="-139.25" font-family="Helvetica,sans-Serif" font-size="10.00">addCommand()</text>
<text xml:space="preserve" text-anchor="start" x="119.38" y="-124" font-family="Helvetica,sans-Serif" font-size="10.00">+</text>
<text xml:space="preserve" text-anchor="start" x="129.38" y="-124" font-family="Helvetica,sans-Serif" font-size="10.00">executeAll()</text>
<polygon fill="#666666" stroke="#666666" points="115.38,-211.75 115.38,-211.75 204.62,-211.75 204.62,-211.75 115.38,-211.75"/>
<polygon fill="#666666" stroke="#666666" points="115.38,-181.25 115.38,-181.25 127.38,-181.25 127.38,-181.25 115.38,-181.25"/>
<polygon fill="#666666" stroke="#666666" points="127.38,-181.25 127.38,-181.25 204.62,-181.25 204.62,-181.25 127.38,-181.25"/>
<polygon fill="none" stroke="#666666" points="115.38,-118.25 115.38,-229 204.62,-229 204.62,-118.25 115.38,-118.25"/>
</a>
</g>
</g>
<!-- Node2&#45;&gt;Node3 -->
<g id="edge3_Node000003_Node000002" class="edge">
<title>Node2&#45;&gt;Node3</title>
<g id="a_edge3_Node000003_Node000002"><a xlink:title=" ">
<path fill="none" stroke="#63b8ff" d="M97.41,-282.33C105.55,-268.32 114.08,-253.65 122.12,-239.8"/>
<polygon fill="none" stroke="#63b8ff" points="121.98,-240.06 121.53,-232.86 128.01,-229.68 128.45,-236.88 121.98,-240.06"/>
</a>
</g>
<text xml:space="preserve" text-anchor="start" x="120.73" y="-251.75" font-family="Helvetica,sans-Serif" font-size="10.00" fill="grey">#chatRooms</text>
</g>
<!-- Node3&#45;&gt;Node1 -->
<g id="edge2_Node000001_Node000003" class="edge">
<title>Node3&#45;&gt;Node1</title>
<g id="a_edge2_Node000001_Node000003"><a xlink:title=" ">
<path fill="none" stroke="#63b8ff" d="M119.88,-118.44C109.27,-104.11 97.99,-88.86 87.95,-75.3"/>
<polygon fill="none" stroke="#63b8ff" points="87.88,-75.21 81.09,-72.77 80.74,-65.56 87.52,-68.01 87.88,-75.21"/>
</a>
</g>
<text xml:space="preserve" text-anchor="start" x="108.41" y="-87.75" font-family="Helvetica,sans-Serif" font-size="10.00" fill="grey">#fromUser</text>
</g>
</g>
</svg>
