<?xml version="1.0" encoding="UTF-8" standalone="no"?>
<!DOCTYPE svg PUBLIC "-//W3C//DTD SVG 1.1//EN"
 "http://www.w3.org/Graphics/SVG/1.1/DTD/svg11.dtd">
<!-- Generated by graphviz version 14.0.0 (20250921.2048)
 -->
<!-- Title: Users Pages: 1 -->
<svg width="164pt" height="220pt"
 viewBox="0.00 0.00 164.00 220.00" xmlns="http://www.w3.org/2000/svg" xmlns:xlink="http://www.w3.org/1999/xlink">
<g id="graph0" class="graph" transform="scale(1 1) rotate(0) translate(4 215.75)">
<title>Users</title>
<!-- Node1 -->
<g id="Node000001" class="node">
<title>Node1</title>
<g id="a_Node000001"><a xlink:title="Represents a user that participates in a chat room.">
<polygon fill="#999999" stroke="none" points="122.38,-211.75 33.12,-211.75 33.12,-85.75 122.38,-85.75 122.38,-211.75"/>
<text xml:space="preserve" text-anchor="start" x="64.62" y="-198.25" font-family="Helvetica,sans-Serif" font-size="10.00">Users</text>
<text xml:space="preserve" text-anchor="start" x="37.5" y="-183" font-family="Helvetica,sans-Serif" font-size="10.00">#</text>
<text xml:space="preserve" text-anchor="start" x="47.12" y="-183" font-family="Helvetica,sans-Serif" font-size="10.00">chatRooms</text>
<text xml:space="preserve" text-anchor="start" x="37.5" y="-167.75" font-family="Helvetica,sans-Serif" font-size="10.00">#</text>
<text xml:space="preserve" text-anchor="start" x="47.12" y="-167.75" font-family="Helvetica,sans-Serif" font-size="10.00">name</text>
<text xml:space="preserve" text-anchor="start" x="37.5" y="-152.5" font-family="Helvetica,sans-Serif" font-size="10.00">#</text>
<text xml:space="preserve" text-anchor="start" x="47.12" y="-152.5" font-family="Helvetica,sans-Serif" font-size="10.00">commandQueue</text>
<text xml:space="preserve" text-anchor="start" x="37.12" y="-137.25" font-family="Helvetica,sans-Serif" font-size="10.00">+</text>
<text xml:space="preserve" text-anchor="start" x="47.12" y="-137.25" font-family="Helvetica,sans-Serif" font-size="10.00">send()</text>
<text xml:space="preserve" text-anchor="start" x="37.12" y="-122" font-family="Helvetica,sans-Serif" font-size="10.00">+</text>
<text xml:space="preserve" text-anchor="start" x="47.12" y="-122" font-family="Helvetica,sans-Serif" font-size="10.00">receive()</text>
<text xml:space="preserve" text-anchor="start" x="37.12" y="-106.75" font-family="Helvetica,sans-Serif" font-size="10.00">+</text>
<text xml:space="preserve" text-anchor="start" x="47.12" y="-106.75" font-family="Helvetica,sans-Serif" font-size="10.00">addCommand()</text>
<text xml:space="preserve" text-anchor="start" x="37.12" y="-91.5" font-family="Helvetica,sans-Serif" font-size="10.00">+</text>
<text xml:space="preserve" text-anchor="start" x="47.12" y="-91.5" font-family="Helvetica,sans-Serif" font-size="10.00">executeAll()</text>
<polygon fill="#666666" stroke="#666666" points="33.12,-194.5 33.12,-194.5 122.38,-194.5 122.38,-194.5 33.12,-194.5"/>
<polygon fill="#666666" stroke="#666666" points="33.12,-148.75 33.12,-148.75 45.12,-148.75 45.12,-148.75 33.12,-148.75"/>
<polygon fill="#666666" stroke="#666666" points="45.12,-148.75 45.12,-148.75 122.38,-148.75 122.38,-148.75 45.12,-148.75"/>
<polygon fill="none" stroke="#666666" points="33.12,-85.75 33.12,-211.75 122.38,-211.75 122.38,-85.75 33.12,-85.75"/>
</a>
</g>
</g>
<!-- Node2 -->
<g id="Node000002" class="node">
<title>Node2</title>
<g id="a_Node000002"><a xlink:href="class_name1.html" target="_top" xlink:title="Example user subclass: Name1.">
<polygon fill="white" stroke="none" points="39.5,-49.75 0,-49.75 0,0 39.5,0 39.5,-49.75"/>
<text xml:space="preserve" text-anchor="start" x="4" y="-36.25" font-family="Helvetica,sans-Serif" font-size="10.00">Name1</text>
<text xml:space="preserve" text-anchor="start" x="18.25" y="-21" font-family="Helvetica,sans-Serif" font-size="10.00"> </text>
<text xml:space="preserve" text-anchor="start" x="18.25" y="-5.75" font-family="Helvetica,sans-Serif" font-size="10.00"> </text>
<polygon fill="#666666" stroke="#666666" points="0,-32.5 0,-32.5 39.5,-32.5 39.5,-32.5 0,-32.5"/>
<polygon fill="#666666" stroke="#666666" points="0,-17.25 0,-17.25 39.5,-17.25 39.5,-17.25 0,-17.25"/>
<polygon fill="none" stroke="#666666" points="0,0 0,-49.75 39.5,-49.75 39.5,0 0,0"/>
</a>
</g>
</g>
<!-- Node1&#45;&gt;Node2 -->
<g id="edge1_Node000001_Node000002" class="edge">
<title>Node1&#45;&gt;Node2</title>
<g id="a_edge1_Node000001_Node000002"><a xlink:title=" ">
<path fill="none" stroke="#63b8ff" d="M43.51,-75.8C39.04,-66.4 34.74,-57.36 31.05,-49.62"/>
<polygon fill="none" stroke="#63b8ff" points="40.3,-77.21 47.76,-84.73 46.62,-74.2 40.3,-77.21"/>
</a>
</g>
</g>
<!-- Node3 -->
<g id="Node000003" class="node">
<title>Node3</title>
<g id="a_Node000003"><a xlink:href="class_name2.html" target="_top" xlink:title="Example user subclass: Name2.">
<polygon fill="white" stroke="none" points="97.5,-49.75 58,-49.75 58,0 97.5,0 97.5,-49.75"/>
<text xml:space="preserve" text-anchor="start" x="62" y="-36.25" font-family="Helvetica,sans-Serif" font-size="10.00">Name2</text>
<text xml:space="preserve" text-anchor="start" x="76.25" y="-21" font-family="Helvetica,sans-Serif" font-size="10.00"> </text>
<text xml:space="preserve" text-anchor="start" x="76.25" y="-5.75" font-family="Helvetica,sans-Serif" font-size="10.00"> </text>
<polygon fill="#666666" stroke="#666666" points="58,-32.5 58,-32.5 97.5,-32.5 97.5,-32.5 58,-32.5"/>
<polygon fill="#666666" stroke="#666666" points="58,-17.25 58,-17.25 97.5,-17.25 97.5,-17.25 58,-17.25"/>
<polygon fill="none" stroke="#666666" points="58,0 58,-49.75 97.5,-49.75 97.5,0 58,0"/>
</a>
</g>
</g>
<!-- Node1&#45;&gt;Node3 -->
<g id="edge2_Node000001_Node000003" class="edge">
<title>Node1&#45;&gt;Node3</title>
<g id="a_edge2_Node000001_Node000003"><a xlink:title=" ">
<path fill="none" stroke="#63b8ff" d="M77.75,-74.6C77.75,-65.63 77.75,-57.03 77.75,-49.62"/>
<polygon fill="none" stroke="#63b8ff" points="74.25,-74.58 77.75,-84.58 81.25,-74.58 74.25,-74.58"/>
</a>
</g>
</g>
<!-- Node4 -->
<g id="Node000004" class="node">
<title>Node4</title>
<g id="a_Node000004"><a xlink:href="class_name3.html" target="_top" xlink:title="Example user subclass: Name3.">
<polygon fill="white" stroke="none" points="155.5,-49.75 116,-49.75 116,0 155.5,0 155.5,-49.75"/>
<text xml:space="preserve" text-anchor="start" x="120" y="-36.25" font-family="Helvetica,sans-Serif" font-size="10.00">Name3</text>
<text xml:space="preserve" text-anchor="start" x="134.25" y="-21" font-family="Helvetica,sans-Serif" font-size="10.00"> </text>
<text xml:space="preserve" text-anchor="start" x="134.25" y="-5.75" font-family="Helvetica,sans-Serif" font-size="10.00"> </text>
<polygon fill="#666666" stroke="#666666" points="116,-32.5 116,-32.5 155.5,-32.5 155.5,-32.5 116,-32.5"/>
<polygon fill="#666666" stroke="#666666" points="116,-17.25 116,-17.25 155.5,-17.25 155.5,-17.25 116,-17.25"/>
<polygon fill="none" stroke="#666666" points="116,0 116,-49.75 155.5,-49.75 155.5,0 116,0"/>
</a>
</g>
</g>
<!-- Node1&#45;&gt;Node4 -->
<g id="edge3_Node000001_Node000004" class="edge">
<title>Node1&#45;&gt;Node4</title>
<g id="a_edge3_Node000001_Node000004"><a xlink:title=" ">
<path fill="none" stroke="#63b8ff" d="M111.99,-75.8C116.46,-66.4 120.76,-57.36 124.45,-49.62"/>
<polygon fill="none" stroke="#63b8ff" points="108.88,-74.2 107.74,-84.73 115.2,-77.21 108.88,-74.2"/>
</a>
</g>
</g>
</g>
</svg>
