<?xml version="1.0" encoding="UTF-8" standalone="no"?>
<!DOCTYPE svg PUBLIC "-//W3C//DTD SVG 1.1//EN"
 "http://www.w3.org/Graphics/SVG/1.1/DTD/svg11.dtd">
<!-- Generated by graphviz version 14.0.0 (20250921.2048)
 -->
<!-- Title: ChatRoom Pages: 1 -->
<svg width="124pt" height="235pt"
 viewBox="0.00 0.00 124.00 235.00" xmlns="http://www.w3.org/2000/svg" xmlns:xlink="http://www.w3.org/1999/xlink">
<g id="graph0" class="graph" transform="scale(1 1) rotate(0) translate(4 231)">
<title>ChatRoom</title>
<!-- Node1 -->
<g id="Node000001" class="node">
<title>Node1</title>
<g id="a_Node000001"><a xlink:title="Abstract base class representing a chat room mediator.">
<polygon fill="#999999" stroke="none" points="114,-227 0,-227 0,-85.75 114,-85.75 114,-227"/>
<text xml:space="preserve" text-anchor="start" x="33.38" y="-213.5" font-family="Helvetica,sans-Serif" font-size="10.00">ChatRoom</text>
<text xml:space="preserve" text-anchor="start" x="55.5" y="-198.25" font-family="Helvetica,sans-Serif" font-size="10.00"> </text>
<text xml:space="preserve" text-anchor="start" x="4" y="-183" font-family="Helvetica,sans-Serif" font-size="10.00">+</text>
<text xml:space="preserve" text-anchor="start" x="14" y="-183" font-family="Helvetica,sans-Serif" font-size="10.00">registerUser()</text>
<text xml:space="preserve" text-anchor="start" x="4" y="-167.75" font-family="Helvetica,sans-Serif" font-size="10.00">+</text>
<text xml:space="preserve" text-anchor="start" x="14" y="-167.75" font-family="Helvetica,sans-Serif" font-size="10.00">sendMessage()</text>
<text xml:space="preserve" text-anchor="start" x="4" y="-152.5" font-family="Helvetica,sans-Serif" font-size="10.00">+</text>
<text xml:space="preserve" text-anchor="start" x="14" y="-152.5" font-family="Helvetica,sans-Serif" font-size="10.00">saveMessage()</text>
<text xml:space="preserve" text-anchor="start" x="4" y="-137.25" font-family="Helvetica,sans-Serif" font-size="10.00">+</text>
<text xml:space="preserve" text-anchor="start" x="14" y="-137.25" font-family="Helvetica,sans-Serif" font-size="10.00">removeUser()</text>
<text xml:space="preserve" text-anchor="start" x="4" y="-122" font-family="Helvetica,sans-Serif" font-size="10.00">+</text>
<text xml:space="preserve" text-anchor="start" x="14" y="-122" font-family="Helvetica,sans-Serif" font-size="10.00">getUsers()</text>
<text xml:space="preserve" text-anchor="start" x="4" y="-106.75" font-family="Helvetica,sans-Serif" font-size="10.00">+</text>
<text xml:space="preserve" text-anchor="start" x="14" y="-106.75" font-family="Helvetica,sans-Serif" font-size="10.00">incrementNumUsers()</text>
<text xml:space="preserve" text-anchor="start" x="4" y="-91.5" font-family="Helvetica,sans-Serif" font-size="10.00">+</text>
<text xml:space="preserve" text-anchor="start" x="14" y="-91.5" font-family="Helvetica,sans-Serif" font-size="10.00">getNumUsers()</text>
<polygon fill="#666666" stroke="#666666" points="0,-209.75 0,-209.75 114,-209.75 114,-209.75 0,-209.75"/>
<polygon fill="#666666" stroke="#666666" points="0,-194.5 0,-194.5 114,-194.5 114,-194.5 0,-194.5"/>
<polygon fill="none" stroke="#666666" points="0,-85.75 0,-227 114,-227 114,-85.75 0,-85.75"/>
</a>
</g>
</g>
<!-- Node2 -->
<g id="Node000002" class="node">
<title>Node2</title>
<g id="a_Node000002"><a xlink:href="class_ctrl_cat.html" target="_top" xlink:title="A specific chat room implementation: CtrlCat.">
<polygon fill="white" stroke="none" points="44.75,-49.75 5.25,-49.75 5.25,0 44.75,0 44.75,-49.75"/>
<text xml:space="preserve" text-anchor="start" x="9.25" y="-36.25" font-family="Helvetica,sans-Serif" font-size="10.00">CtrlCat</text>
<text xml:space="preserve" text-anchor="start" x="23.5" y="-21" font-family="Helvetica,sans-Serif" font-size="10.00"> </text>
<text xml:space="preserve" text-anchor="start" x="23.5" y="-5.75" font-family="Helvetica,sans-Serif" font-size="10.00"> </text>
<polygon fill="#666666" stroke="#666666" points="5.25,-32.5 5.25,-32.5 44.75,-32.5 44.75,-32.5 5.25,-32.5"/>
<polygon fill="#666666" stroke="#666666" points="5.25,-17.25 5.25,-17.25 44.75,-17.25 44.75,-17.25 5.25,-17.25"/>
<polygon fill="none" stroke="#666666" points="5.25,0 5.25,-49.75 44.75,-49.75 44.75,0 5.25,0"/>
</a>
</g>
</g>
<!-- Node1&#45;&gt;Node2 -->
<g id="edge1_Node000001_Node000002" class="edge">
<title>Node1&#45;&gt;Node2</title>
<g id="a_edge1_Node000001_Node000002"><a xlink:title=" ">
<path fill="none" stroke="#63b8ff" d="M37.17,-75.12C34.9,-65.92 32.73,-57.17 30.88,-49.66"/>
<polygon fill="none" stroke="#63b8ff" points="33.72,-75.74 39.51,-84.61 40.51,-74.06 33.72,-75.74"/>
</a>
</g>
</g>
<!-- Node3 -->
<g id="Node000003" class="node">
<title>Node3</title>
<g id="a_Node000003"><a xlink:href="class_dogorithm.html" target="_top" xlink:title="A specific chat room implementation: Dogorithm.">
<polygon fill="white" stroke="none" points="115.5,-49.75 62.5,-49.75 62.5,0 115.5,0 115.5,-49.75"/>
<text xml:space="preserve" text-anchor="start" x="66.5" y="-36.25" font-family="Helvetica,sans-Serif" font-size="10.00">Dogorithm</text>
<text xml:space="preserve" text-anchor="start" x="87.5" y="-21" font-family="Helvetica,sans-Serif" font-size="10.00"> </text>
<text xml:space="preserve" text-anchor="start" x="87.5" y="-5.75" font-family="Helvetica,sans-Serif" font-size="10.00"> </text>
<polygon fill="#666666" stroke="#666666" points="62.5,-32.5 62.5,-32.5 115.5,-32.5 115.5,-32.5 62.5,-32.5"/>
<polygon fill="#666666" stroke="#666666" points="62.5,-17.25 62.5,-17.25 115.5,-17.25 115.5,-17.25 62.5,-17.25"/>
<polygon fill="none" stroke="#666666" points="62.5,0 62.5,-49.75 115.5,-49.75 115.5,0 62.5,0"/>
</a>
</g>
</g>
<!-- Node1&#45;&gt;Node3 -->
<g id="edge2_Node000001_Node000003" class="edge">
<title>Node1&#45;&gt;Node3</title>
<g id="a_edge2_Node000001_Node000003"><a xlink:title=" ">
<path fill="none" stroke="#63b8ff" d="M76.83,-75.12C79.1,-65.92 81.27,-57.17 83.12,-49.66"/>
<polygon fill="none" stroke="#63b8ff" points="73.49,-74.06 74.49,-84.61 80.28,-75.74 73.49,-74.06"/>
</a>
</g>
</g>
</g>
</svg>
