<?xml version="1.0" encoding="UTF-8" standalone="no"?>
<!DOCTYPE svg PUBLIC "-//W3C//DTD SVG 1.1//EN"
 "http://www.w3.org/Graphics/SVG/1.1/DTD/svg11.dtd">
<!-- Generated by graphviz version 14.0.0 (20250921.2048)
 -->
<!-- Title: Graphical Class Hierarchy Pages: 1 -->
<svg width="168pt" height="64pt"
 viewBox="0.00 0.00 168.00 64.00" xmlns="http://www.w3.org/2000/svg" xmlns:xlink="http://www.w3.org/1999/xlink">
<g id="graph0" class="graph" transform="scale(1 1) rotate(0) translate(4 60.25)">
<title>Graphical Class Hierarchy</title>
<!-- Node0 -->
<g id="Node000000" class="node">
<title>Node0</title>
<g id="a_Node000000"><a xlink:href="class_chat_room.html" target="_top" xlink:title="Abstract base class representing a chat room mediator.">
<polygon fill="white" stroke="#666666" points="63.25,-37.25 0,-37.25 0,-18 63.25,-18 63.25,-37.25"/>
<text xml:space="preserve" text-anchor="middle" x="31.62" y="-23.75" font-family="Helvetica,sans-Serif" font-size="10.00">ChatRoom</text>
</a>
</g>
</g>
<!-- Node1 -->
<g id="Node000001" class="node">
<title>Node1</title>
<g id="a_Node000001"><a xlink:href="class_ctrl_cat.html" target="_top" xlink:title="A specific chat room implementation: CtrlCat.">
<polygon fill="white" stroke="#666666" points="153.5,-56.25 106,-56.25 106,-37 153.5,-37 153.5,-56.25"/>
<text xml:space="preserve" text-anchor="middle" x="129.75" y="-42.75" font-family="Helvetica,sans-Serif" font-size="10.00">CtrlCat</text>
</a>
</g>
</g>
<!-- Node0&#45;&gt;Node1 -->
<g id="edge1_Node000000_Node000001" class="edge">
<title>Node0&#45;&gt;Node1</title>
<g id="a_edge1_Node000000_Node000001"><a xlink:title=" ">
<path fill="none" stroke="#63b8ff" d="M74.86,-35.97C85.49,-38.07 96.51,-40.25 105.79,-42.09"/>
<polygon fill="#63b8ff" stroke="#63b8ff" points="75.54,-32.54 65.05,-34.03 74.18,-39.41 75.54,-32.54"/>
</a>
</g>
</g>
<!-- Node2 -->
<g id="Node000002" class="node">
<title>Node2</title>
<g id="a_Node000002"><a xlink:href="class_dogorithm.html" target="_top" xlink:title="A specific chat room implementation: Dogorithm.">
<polygon fill="white" stroke="#666666" points="160.25,-19.25 99.25,-19.25 99.25,0 160.25,0 160.25,-19.25"/>
<text xml:space="preserve" text-anchor="middle" x="129.75" y="-5.75" font-family="Helvetica,sans-Serif" font-size="10.00">Dogorithm</text>
</a>
</g>
</g>
<!-- Node0&#45;&gt;Node2 -->
<g id="edge2_Node000000_Node000002" class="edge">
<title>Node0&#45;&gt;Node2</title>
<g id="a_edge2_Node000000_Node000002"><a xlink:title=" ">
<path fill="none" stroke="#63b8ff" d="M74.78,-19.73C82.89,-18.21 91.23,-16.65 98.85,-15.22"/>
<polygon fill="#63b8ff" stroke="#63b8ff" points="74.24,-16.27 65.06,-21.55 75.53,-23.15 74.24,-16.27"/>
</a>
</g>
</g>
</g>
</svg>
