<?xml version="1.0" encoding="UTF-8" standalone="no"?>
<!DOCTYPE svg PUBLIC "-//W3C//DTD SVG 1.1//EN"
 "http://www.w3.org/Graphics/SVG/1.1/DTD/svg11.dtd">
<!-- Generated by graphviz version 14.0.0 (20250921.2048)
 -->
<!-- Title: Graphical Class Hierarchy Pages: 1 -->
<svg width="228pt" height="64pt"
 viewBox="0.00 0.00 228.00 64.00" xmlns="http://www.w3.org/2000/svg" xmlns:xlink="http://www.w3.org/1999/xlink">
<g id="graph0" class="graph" transform="scale(1 1) rotate(0) translate(4 60.25)">
<title>Graphical Class Hierarchy</title>
<!-- Node0 -->
<g id="Node000000" class="node">
<title>Node0</title>
<g id="a_Node000000"><a xlink:href="class_command.html" target="_top" xlink:title=" ">
<polygon fill="white" stroke="#666666" points="61,-37.25 0,-37.25 0,-18 61,-18 61,-37.25"/>
<text xml:space="preserve" text-anchor="middle" x="30.5" y="-23.75" font-family="Helvetica,sans-Serif" font-size="10.00">Command</text>
</a>
</g>
</g>
<!-- Node1 -->
<g id="Node000001" class="node">
<title>Node1</title>
<g id="a_Node000001"><a xlink:href="class_log_message_command.html" target="_top" xlink:title=" ">
<polygon fill="white" stroke="#666666" points="216.88,-56.25 100.38,-56.25 100.38,-37 216.88,-37 216.88,-56.25"/>
<text xml:space="preserve" text-anchor="middle" x="158.62" y="-42.75" font-family="Helvetica,sans-Serif" font-size="10.00">LogMessageCommand</text>
</a>
</g>
</g>
<!-- Node0&#45;&gt;Node1 -->
<g id="edge3_Node000000_Node000001" class="edge">
<title>Node0&#45;&gt;Node1</title>
<g id="a_edge3_Node000000_Node000001"><a xlink:title=" ">
<path fill="none" stroke="#63b8ff" d="M72.49,-33.8C81.27,-35.12 90.71,-36.54 99.99,-37.94"/>
<polygon fill="#63b8ff" stroke="#63b8ff" points="73.3,-30.38 62.89,-32.35 72.25,-37.3 73.3,-30.38"/>
</a>
</g>
</g>
<!-- Node2 -->
<g id="Node000002" class="node">
<title>Node2</title>
<g id="a_Node000002"><a xlink:href="class_send_message_command.html" target="_top" xlink:title=" ">
<polygon fill="white" stroke="#666666" points="220.25,-19.25 97,-19.25 97,0 220.25,0 220.25,-19.25"/>
<text xml:space="preserve" text-anchor="middle" x="158.62" y="-5.75" font-family="Helvetica,sans-Serif" font-size="10.00">SendMessageCommand</text>
</a>
</g>
</g>
<!-- Node0&#45;&gt;Node2 -->
<g id="edge4_Node000000_Node000002" class="edge">
<title>Node0&#45;&gt;Node2</title>
<g id="a_edge4_Node000000_Node000002"><a xlink:title=" ">
<path fill="none" stroke="#63b8ff" d="M72.63,-21.75C80.34,-20.65 88.55,-19.48 96.71,-18.32"/>
<polygon fill="#63b8ff" stroke="#63b8ff" points="72.29,-18.27 62.89,-23.15 73.28,-25.2 72.29,-18.27"/>
</a>
</g>
</g>
</g>
</svg>
