<svg xmlns="http://www.w3.org/2000/svg" xmlns:xlink="http://www.w3.org/1999/xlink" contentStyleType="text/css" data-diagram-type="CLASS" height="576px" preserveAspectRatio="none" style="width:743px;height:576px;background:#FFFFFF;" version="1.1" viewBox="0 0 743 576" width="743px" zoomAndPan="magnify"><defs/><g><!--class ChatRoom--><g class="entity" data-entity="ChatRoom" data-source-line="1" data-uid="ent0002" id="entity_ChatRoom"><rect fill="#F1F1F1" height="212.8828" rx="2.5" ry="2.5" style="stroke:#181818;stroke-width:0.5;" width="393.8896" x="289.47" y="7"/><ellipse cx="446.9324" cy="23" fill="#ADD1B2" rx="11" ry="11" style="stroke:#181818;stroke-width:1;"/><path d="M449.4055,29.1431 Q448.8245,29.4419 448.1853,29.5913 Q447.5462,29.7407 446.8406,29.7407 Q444.3338,29.7407 443.0139,28.0889 Q441.6941,26.437 441.6941,23.3159 Q441.6941,20.1865 443.0139,18.5347 Q444.3338,16.8828 446.8406,16.8828 Q447.5462,16.8828 448.1936,17.0322 Q448.8411,17.1816 449.4055,17.4805 L449.4055,20.2031 Q448.7747,19.6221 448.1812,19.3523 Q447.5877,19.0825 446.9568,19.0825 Q445.6121,19.0825 444.9273,20.1492 Q444.2425,21.2158 444.2425,23.3159 Q444.2425,25.4077 444.9273,26.4744 Q445.6121,27.541 446.9568,27.541 Q447.5877,27.541 448.1812,27.2712 Q448.7747,27.0015 449.4055,26.4204 Z " fill="#000000"/><text fill="#000000" font-family="sans-serif" font-size="14" lengthAdjust="spacing" textLength="70.4648" x="467.4324" y="28.291">ChatRoom</text><line style="stroke:#181818;stroke-width:0.5;" x1="290.47" x2="682.3596" y1="39" y2="39"/><rect fill="none" height="6" style="stroke:#C82930;stroke-width:1;" width="6" x="297.47" y="49.7441"/><text fill="#000000" font-family="sans-serif" font-size="14" lengthAdjust="spacing" textLength="136.7529" x="309.47" y="56.5352">users : list&lt;Users*&gt;</text><rect fill="none" height="6" style="stroke:#C82930;stroke-width:1;" width="6" x="297.47" y="66.2324"/><text fill="#000000" font-family="sans-serif" font-size="14" lengthAdjust="spacing" textLength="99.21" x="309.47" y="73.0234">numUsers : int</text><rect fill="none" height="6" style="stroke:#C82930;stroke-width:1;" width="6" x="297.47" y="82.7207"/><text fill="#000000" font-family="sans-serif" font-size="14" lengthAdjust="spacing" textLength="136.7803" x="309.47" y="89.5117">chatHistory : string*</text><line style="stroke:#181818;stroke-width:0.5;" x1="290.47" x2="682.3596" y1="96.4648" y2="96.4648"/><ellipse cx="300.47" cy="110.209" fill="#84BE84" rx="3" ry="3" style="stroke:#038048;stroke-width:1;"/><text fill="#000000" font-family="sans-serif" font-size="14" lengthAdjust="spacing" textLength="209.3848" x="309.47" y="114">registerUser(user: Users) : void</text><ellipse cx="300.47" cy="126.6973" fill="#84BE84" rx="3" ry="3" style="stroke:#038048;stroke-width:1;"/><text fill="#000000" font-family="sans-serif" font-size="14" lengthAdjust="spacing" textLength="367.8896" x="309.47" y="130.4883">sendMessage(message: string, fromUser: Users) : void</text><ellipse cx="300.47" cy="143.1855" fill="#84BE84" rx="3" ry="3" style="stroke:#038048;stroke-width:1;"/><text fill="#000000" font-family="sans-serif" font-size="14" lengthAdjust="spacing" textLength="365.3672" x="309.47" y="146.9766">saveMessage(message: string, fromUser: Users) : void</text><ellipse cx="300.47" cy="159.6738" fill="#84BE84" rx="3" ry="3" style="stroke:#038048;stroke-width:1;"/><text fill="#000000" font-family="sans-serif" font-size="14" lengthAdjust="spacing" textLength="207.4229" x="309.47" y="163.4648">removeUser(user: Users) : void</text><ellipse cx="300.47" cy="176.1621" fill="#84BE84" rx="3" ry="3" style="stroke:#038048;stroke-width:1;"/><text fill="#000000" font-family="sans-serif" font-size="14" lengthAdjust="spacing" textLength="168.6357" x="309.47" y="179.9531">getUsers() : list&lt;Users*&gt;</text><ellipse cx="300.47" cy="192.6504" fill="#84BE84" rx="3" ry="3" style="stroke:#038048;stroke-width:1;"/><text fill="#000000" font-family="sans-serif" font-size="14" lengthAdjust="spacing" textLength="178.1992" x="309.47" y="196.4414">incrementNumUsers() : int</text><ellipse cx="300.47" cy="209.1387" fill="#84BE84" rx="3" ry="3" style="stroke:#038048;stroke-width:1;"/><text fill="#000000" font-family="sans-serif" font-size="14" lengthAdjust="spacing" textLength="131.7354" x="309.47" y="212.9297">getNumUsers() : int</text></g><!--class Users--><g class="entity" data-entity="Users" data-source-line="14" data-uid="ent0003" id="entity_Users"><rect fill="#F1F1F1" height="163.418" rx="2.5" ry="2.5" style="stroke:#181818;stroke-width:0.5;" width="474.834" x="7" y="296.88"/><ellipse cx="221.416" cy="312.88" fill="#ADD1B2" rx="11" ry="11" style="stroke:#181818;stroke-width:1;"/><path d="M223.8892,319.0231 Q223.3081,319.3219 222.6689,319.4713 Q222.0298,319.6207 221.3242,319.6207 Q218.8174,319.6207 217.4976,317.9689 Q216.1777,316.317 216.1777,313.1959 Q216.1777,310.0665 217.4976,308.4147 Q218.8174,306.7628 221.3242,306.7628 Q222.0298,306.7628 222.6772,306.9122 Q223.3247,307.0616 223.8892,307.3605 L223.8892,310.0831 Q223.2583,309.5021 222.6648,309.2323 Q222.0713,308.9625 221.4404,308.9625 Q220.0957,308.9625 219.4109,310.0292 Q218.7261,311.0958 218.7261,313.1959 Q218.7261,315.2877 219.4109,316.3544 Q220.0957,317.421 221.4404,317.421 Q222.0713,317.421 222.6648,317.1512 Q223.2583,316.8815 223.8892,316.3004 Z " fill="#000000"/><text fill="#000000" font-family="sans-serif" font-size="14" lengthAdjust="spacing" textLength="37.502" x="241.916" y="318.171">Users</text><line style="stroke:#181818;stroke-width:0.5;" x1="8" x2="480.834" y1="328.88" y2="328.88"/><rect fill="none" height="6" style="stroke:#C82930;stroke-width:1;" width="6" x="15" y="339.6241"/><text fill="#000000" font-family="sans-serif" font-size="14" lengthAdjust="spacing" textLength="165.5869" x="27" y="346.4152">chatRooms : ChatRoom*</text><rect fill="none" height="6" style="stroke:#C82930;stroke-width:1;" width="6" x="15" y="356.1124"/><text fill="#000000" font-family="sans-serif" font-size="14" lengthAdjust="spacing" textLength="90.1455" x="27" y="362.9034">name : string</text><rect fill="none" height="6" style="stroke:#C82930;stroke-width:1;" width="6" x="15" y="372.6007"/><text fill="#000000" font-family="sans-serif" font-size="14" lengthAdjust="spacing" textLength="243.4141" x="27" y="379.3917">commandQueue : list&lt;Command*&gt;</text><line style="stroke:#181818;stroke-width:0.5;" x1="8" x2="480.834" y1="386.3448" y2="386.3448"/><ellipse cx="18" cy="400.089" fill="#84BE84" rx="3" ry="3" style="stroke:#038048;stroke-width:1;"/><text fill="#000000" font-family="sans-serif" font-size="14" lengthAdjust="spacing" textLength="315.5469" x="27" y="403.88">send(message: string, room: ChatRoom) : void</text><ellipse cx="18" cy="416.5773" fill="#84BE84" rx="3" ry="3" style="stroke:#038048;stroke-width:1;"/><text fill="#000000" font-family="sans-serif" font-size="14" lengthAdjust="spacing" textLength="448.834" x="27" y="420.3683">receive(message: string, fromUser: Users, room: ChatRoom) : void</text><ellipse cx="18" cy="433.0655" fill="#84BE84" rx="3" ry="3" style="stroke:#038048;stroke-width:1;"/><text fill="#000000" font-family="sans-serif" font-size="14" lengthAdjust="spacing" textLength="291.7715" x="27" y="436.8566">addCommand(command: Command) : void</text><ellipse cx="18" cy="449.5538" fill="#84BE84" rx="3" ry="3" style="stroke:#038048;stroke-width:1;"/><text fill="#000000" font-family="sans-serif" font-size="14" lengthAdjust="spacing" textLength="121.9326" x="27" y="453.3448">executeAll() : void</text></g><!--class Dogorithm--><g class="entity" data-entity="Dogorithm" data-source-line="24" data-uid="ent0004" id="entity_Dogorithm"><rect fill="#F1F1F1" height="48" rx="2.5" ry="2.5" style="stroke:#181818;stroke-width:0.5;" width="105.1855" x="516.82" y="354.59"/><ellipse cx="531.82" cy="370.59" fill="#ADD1B2" rx="11" ry="11" style="stroke:#181818;stroke-width:1;"/><path d="M534.2931,376.7331 Q533.7121,377.0319 533.0729,377.1813 Q532.4338,377.3307 531.7282,377.3307 Q529.2214,377.3307 527.9015,375.6789 Q526.5817,374.027 526.5817,370.9059 Q526.5817,367.7765 527.9015,366.1247 Q529.2214,364.4728 531.7282,364.4728 Q532.4338,364.4728 533.0812,364.6222 Q533.7287,364.7716 534.2931,365.0705 L534.2931,367.7931 Q533.6623,367.2121 533.0688,366.9423 Q532.4753,366.6725 531.8444,366.6725 Q530.4997,366.6725 529.8149,367.7392 Q529.1301,368.8058 529.1301,370.9059 Q529.1301,372.9977 529.8149,374.0644 Q530.4997,375.131 531.8444,375.131 Q532.4753,375.131 533.0688,374.8612 Q533.6623,374.5915 534.2931,374.0104 Z " fill="#000000"/><text fill="#000000" font-family="sans-serif" font-size="14" lengthAdjust="spacing" textLength="73.1855" x="545.82" y="375.881">Dogorithm</text><line style="stroke:#181818;stroke-width:0.5;" x1="517.82" x2="621.0055" y1="386.59" y2="386.59"/><line style="stroke:#181818;stroke-width:0.5;" x1="517.82" x2="621.0055" y1="394.59" y2="394.59"/></g><!--class CtrlCat--><g class="entity" data-entity="CtrlCat" data-source-line="25" data-uid="ent0005" id="entity_CtrlCat"><rect fill="#F1F1F1" height="48" rx="2.5" ry="2.5" style="stroke:#181818;stroke-width:0.5;" width="79.3525" x="656.74" y="354.59"/><ellipse cx="671.74" cy="370.59" fill="#ADD1B2" rx="11" ry="11" style="stroke:#181818;stroke-width:1;"/><path d="M674.2131,376.7331 Q673.6321,377.0319 672.9929,377.1813 Q672.3538,377.3307 671.6482,377.3307 Q669.1414,377.3307 667.8215,375.6789 Q666.5017,374.027 666.5017,370.9059 Q666.5017,367.7765 667.8215,366.1247 Q669.1414,364.4728 671.6482,364.4728 Q672.3538,364.4728 673.0012,364.6222 Q673.6487,364.7716 674.2131,365.0705 L674.2131,367.7931 Q673.5823,367.2121 672.9888,366.9423 Q672.3953,366.6725 671.7644,366.6725 Q670.4197,366.6725 669.7349,367.7392 Q669.0501,368.8058 669.0501,370.9059 Q669.0501,372.9977 669.7349,374.0644 Q670.4197,375.131 671.7644,375.131 Q672.3953,375.131 672.9888,374.8612 Q673.5823,374.5915 674.2131,374.0104 Z " fill="#000000"/><text fill="#000000" font-family="sans-serif" font-size="14" lengthAdjust="spacing" textLength="47.3525" x="685.74" y="375.881">CtrlCat</text><line style="stroke:#181818;stroke-width:0.5;" x1="657.74" x2="735.0925" y1="386.59" y2="386.59"/><line style="stroke:#181818;stroke-width:0.5;" x1="657.74" x2="735.0925" y1="394.59" y2="394.59"/></g><!--class Name1--><g class="entity" data-entity="Name1" data-source-line="26" data-uid="ent0006" id="entity_Name1"><rect fill="#F1F1F1" height="48" rx="2.5" ry="2.5" style="stroke:#181818;stroke-width:0.5;" width="79.7969" x="89.52" y="521.3"/><ellipse cx="104.52" cy="537.3" fill="#ADD1B2" rx="11" ry="11" style="stroke:#181818;stroke-width:1;"/><path d="M106.9931,543.4431 Q106.4121,543.7419 105.7729,543.8913 Q105.1338,544.0407 104.4282,544.0407 Q101.9214,544.0407 100.6015,542.3889 Q99.2817,540.737 99.2817,537.6159 Q99.2817,534.4865 100.6015,532.8347 Q101.9214,531.1828 104.4282,531.1828 Q105.1338,531.1828 105.7812,531.3322 Q106.4287,531.4816 106.9931,531.7805 L106.9931,534.5031 Q106.3623,533.9221 105.7688,533.6523 Q105.1753,533.3825 104.5444,533.3825 Q103.1997,533.3825 102.5149,534.4492 Q101.8301,535.5158 101.8301,537.6159 Q101.8301,539.7077 102.5149,540.7744 Q103.1997,541.841 104.5444,541.841 Q105.1753,541.841 105.7688,541.5712 Q106.3623,541.3015 106.9931,540.7204 Z " fill="#000000"/><text fill="#000000" font-family="sans-serif" font-size="14" lengthAdjust="spacing" textLength="47.7969" x="118.52" y="542.591">Name1</text><line style="stroke:#181818;stroke-width:0.5;" x1="90.52" x2="168.3169" y1="553.3" y2="553.3"/><line style="stroke:#181818;stroke-width:0.5;" x1="90.52" x2="168.3169" y1="561.3" y2="561.3"/></g><!--class Name2--><g class="entity" data-entity="Name2" data-source-line="27" data-uid="ent0007" id="entity_Name2"><rect fill="#F1F1F1" height="48" rx="2.5" ry="2.5" style="stroke:#181818;stroke-width:0.5;" width="79.7969" x="204.52" y="521.3"/><ellipse cx="219.52" cy="537.3" fill="#ADD1B2" rx="11" ry="11" style="stroke:#181818;stroke-width:1;"/><path d="M221.9931,543.4431 Q221.4121,543.7419 220.7729,543.8913 Q220.1338,544.0407 219.4282,544.0407 Q216.9214,544.0407 215.6015,542.3889 Q214.2817,540.737 214.2817,537.6159 Q214.2817,534.4865 215.6015,532.8347 Q216.9214,531.1828 219.4282,531.1828 Q220.1338,531.1828 220.7812,531.3322 Q221.4287,531.4816 221.9931,531.7805 L221.9931,534.5031 Q221.3623,533.9221 220.7688,533.6523 Q220.1753,533.3825 219.5444,533.3825 Q218.1997,533.3825 217.5149,534.4492 Q216.8301,535.5158 216.8301,537.6159 Q216.8301,539.7077 217.5149,540.7744 Q218.1997,541.841 219.5444,541.841 Q220.1753,541.841 220.7688,541.5712 Q221.3623,541.3015 221.9931,540.7204 Z " fill="#000000"/><text fill="#000000" font-family="sans-serif" font-size="14" lengthAdjust="spacing" textLength="47.7969" x="233.52" y="542.591">Name2</text><line style="stroke:#181818;stroke-width:0.5;" x1="205.52" x2="283.3169" y1="553.3" y2="553.3"/><line style="stroke:#181818;stroke-width:0.5;" x1="205.52" x2="283.3169" y1="561.3" y2="561.3"/></g><!--class Name3--><g class="entity" data-entity="Name3" data-source-line="28" data-uid="ent0008" id="entity_Name3"><rect fill="#F1F1F1" height="48" rx="2.5" ry="2.5" style="stroke:#181818;stroke-width:0.5;" width="79.7969" x="319.52" y="521.3"/><ellipse cx="334.52" cy="537.3" fill="#ADD1B2" rx="11" ry="11" style="stroke:#181818;stroke-width:1;"/><path d="M336.9931,543.4431 Q336.4121,543.7419 335.7729,543.8913 Q335.1338,544.0407 334.4282,544.0407 Q331.9214,544.0407 330.6015,542.3889 Q329.2817,540.737 329.2817,537.6159 Q329.2817,534.4865 330.6015,532.8347 Q331.9214,531.1828 334.4282,531.1828 Q335.1338,531.1828 335.7812,531.3322 Q336.4287,531.4816 336.9931,531.7805 L336.9931,534.5031 Q336.3623,533.9221 335.7688,533.6523 Q335.1753,533.3825 334.5444,533.3825 Q333.1997,533.3825 332.5149,534.4492 Q331.8301,535.5158 331.8301,537.6159 Q331.8301,539.7077 332.5149,540.7744 Q333.1997,541.841 334.5444,541.841 Q335.1753,541.841 335.7688,541.5712 Q336.3623,541.3015 336.9931,540.7204 Z " fill="#000000"/><text fill="#000000" font-family="sans-serif" font-size="14" lengthAdjust="spacing" textLength="47.7969" x="348.52" y="542.591">Name3</text><line style="stroke:#181818;stroke-width:0.5;" x1="320.52" x2="398.3169" y1="553.3" y2="553.3"/><line style="stroke:#181818;stroke-width:0.5;" x1="320.52" x2="398.3169" y1="561.3" y2="561.3"/></g><!--reverse link ChatRoom to Dogorithm--><g class="link" data-entity-1="ChatRoom" data-entity-2="Dogorithm" data-source-line="30" data-uid="lnk9" id="link_ChatRoom_Dogorithm"><path codeLine="30" d="M525.233,237.5068 C540.813,286.9168 552.58,324.19 562.07,354.3" fill="none" id="ChatRoom-backto-Dogorithm" style="stroke:#181818;stroke-width:1;"/><polygon fill="none" points="519.82,220.34,519.5108,239.3111,530.9553,235.7024,519.82,220.34" style="stroke:#181818;stroke-width:1;"/></g><!--reverse link ChatRoom to CtrlCat--><g class="link" data-entity-1="ChatRoom" data-entity-2="CtrlCat" data-source-line="31" data-uid="lnk10" id="link_ChatRoom_CtrlCat"><path codeLine="31" d="M589.2577,234.1343 C609.9377,258.9343 619.99,271.67 639.42,296.88 C653.97,315.77 669.52,337.94 680.7,354.26" fill="none" id="ChatRoom-backto-CtrlCat" style="stroke:#181818;stroke-width:1;"/><polygon fill="none" points="577.73,220.31,584.6496,237.9769,593.8658,230.2918,577.73,220.31" style="stroke:#181818;stroke-width:1;"/></g><!--reverse link Users to Name1--><g class="link" data-entity-1="Users" data-entity-2="Name1" data-source-line="32" data-uid="lnk11" id="link_Users_Name1"><path codeLine="32" d="M177.626,475.259 C162.176,497.389 156.93,504.89 145.75,520.91" fill="none" id="Users-backto-Name1" style="stroke:#181818;stroke-width:1;"/><polygon fill="none" points="187.93,460.5,172.7064,471.8244,182.5457,478.6937,187.93,460.5" style="stroke:#181818;stroke-width:1;"/></g><!--reverse link Users to Name2--><g class="link" data-entity-1="Users" data-entity-2="Name2" data-source-line="33" data-uid="lnk12" id="link_Users_Name2"><path codeLine="33" d="M244.42,478.5 C244.42,500.63 244.42,504.89 244.42,520.91" fill="none" id="Users-backto-Name2" style="stroke:#181818;stroke-width:1;"/><polygon fill="none" points="244.42,460.5,238.42,478.5,250.42,478.5,244.42,460.5" style="stroke:#181818;stroke-width:1;"/></g><!--reverse link Users to Name3--><g class="link" data-entity-1="Users" data-entity-2="Name3" data-source-line="34" data-uid="lnk13" id="link_Users_Name3"><path codeLine="34" d="M311.214,475.259 C326.664,497.389 331.9,504.89 343.09,520.91" fill="none" id="Users-backto-Name3" style="stroke:#181818;stroke-width:1;"/><polygon fill="none" points="300.91,460.5,306.2943,478.6937,316.1336,471.8244,300.91,460.5" style="stroke:#181818;stroke-width:1;"/></g><!--link Users to ChatRoom--><g class="link" data-entity-1="Users" data-entity-2="ChatRoom" data-source-line="35" data-uid="lnk14" id="link_Users_ChatRoom"><path codeLine="35" d="M319.08,296.58 C328.29,286.58 337.57,276.5 346.42,266.88 C360.28,251.81 370.8621,240.3096 385.2221,224.6696" fill="none" id="Users-to-ChatRoom" style="stroke:#181818;stroke-width:1;"/><polygon fill="#181818" points="389.28,220.25,380.2467,224.1742,385.8984,223.933,386.1395,229.5847,389.28,220.25" style="stroke:#181818;stroke-width:1;"/><text fill="#000000" font-family="sans-serif" font-size="13" lengthAdjust="spacing" textLength="89.7495" x="362.61" y="263.4484">participates in</text></g><!--link ChatRoom to Users--><g class="link" data-entity-1="ChatRoom" data-entity-2="Users" data-source-line="36" data-uid="lnk15" id="link_ChatRoom_Users"><path codeLine="36" d="M295.35,220.17 C286.15,229.43 277.73,239.33 270.42,249.88 C260.88,263.65 256.1019,274.2885 252.1119,290.7685" fill="none" id="ChatRoom-to-Users" style="stroke:#181818;stroke-width:1;"/><polygon fill="#181818" points="250.7,296.6,256.7055,288.794,251.8766,291.7404,248.9301,286.9115,250.7,296.6" style="stroke:#181818;stroke-width:1;"/><text fill="#000000" font-family="sans-serif" font-size="13" lengthAdjust="spacing" textLength="66.917" x="271.42" y="263.4484">manages *</text></g><!--SRC=[dLFBQiCm4BphAuHFhbiVcjnC21Jta4i2BUG3XBnr19OL9DcqfFtthXv-96bJwCNQ7OzcFIEPDymOMXwOVLLAqXEXz5v3BOm5lJUWqmuV1NMbkQC5xPMe7CT0Mst165P3AiDQK6ErQEi7-gQLtF-oZ_NmdtqQfEhXrXVLO3sMEh110olVPcltKhGS5Q2rkqvEBD7QkFC7E7TppBLMtaRknEGOtmPPId_GmKr6lWZXFjt0FWsnNVlM67qn7iAvRGwY_pkgMngigaeb9SF9FAp82yMS1k_0EmjFJPFEOE_DAJgxWthcOs0IHhUU6JHVEkXWY2tEmU36D9vLhRIm1ndxqkgcP3PsErHzdDMBMRqaPBoegyyydqcTuuDa2Dv3GVS2M5m2omZa-Nhw9mgQ79csWeiZis3mq9DfdcCEjo51gtX8XcR9Dm00]--></g></svg>