<?xml version="1.0" encoding="UTF-8" standalone="no"?>
<!DOCTYPE svg PUBLIC "-//W3C//DTD SVG 1.1//EN"
 "http://www.w3.org/Graphics/SVG/1.1/DTD/svg11.dtd">
<!-- Generated by graphviz version 14.0.0 (20250921.2048)
 -->
<!-- Title: Command Pages: 1 -->
<svg width="282pt" height="205pt"
 viewBox="0.00 0.00 282.00 205.00" xmlns="http://www.w3.org/2000/svg" xmlns:xlink="http://www.w3.org/1999/xlink">
<g id="graph0" class="graph" transform="scale(1 1) rotate(0) translate(4 200.5)">
<title>Command</title>
<!-- Node1 -->
<g id="Node000001" class="node">
<title>Node1</title>
<g id="a_Node000001"><a xlink:title=" ">
<polygon fill="#999999" stroke="none" points="172.75,-196.5 97.75,-196.5 97.75,-101 172.75,-101 172.75,-196.5"/>
<text xml:space="preserve" text-anchor="start" x="112.75" y="-183" font-family="Helvetica,sans-Serif" font-size="10.00">Command</text>
<text xml:space="preserve" text-anchor="start" x="102.12" y="-167.75" font-family="Helvetica,sans-Serif" font-size="10.00">#</text>
<text xml:space="preserve" text-anchor="start" x="111.75" y="-167.75" font-family="Helvetica,sans-Serif" font-size="10.00">chatRoom</text>
<text xml:space="preserve" text-anchor="start" x="102.12" y="-152.5" font-family="Helvetica,sans-Serif" font-size="10.00">#</text>
<text xml:space="preserve" text-anchor="start" x="111.75" y="-152.5" font-family="Helvetica,sans-Serif" font-size="10.00">fromUser</text>
<text xml:space="preserve" text-anchor="start" x="102.12" y="-137.25" font-family="Helvetica,sans-Serif" font-size="10.00">#</text>
<text xml:space="preserve" text-anchor="start" x="111.75" y="-137.25" font-family="Helvetica,sans-Serif" font-size="10.00">message</text>
<text xml:space="preserve" text-anchor="start" x="101.75" y="-122" font-family="Helvetica,sans-Serif" font-size="10.00">+</text>
<text xml:space="preserve" text-anchor="start" x="111.75" y="-122" font-family="Helvetica,sans-Serif" font-size="10.00">~Command()</text>
<text xml:space="preserve" text-anchor="start" x="101.75" y="-106.75" font-family="Helvetica,sans-Serif" font-size="10.00">+</text>
<text xml:space="preserve" text-anchor="start" x="111.75" y="-106.75" font-family="Helvetica,sans-Serif" font-size="10.00">execute()</text>
<polygon fill="#666666" stroke="#666666" points="97.75,-179.25 97.75,-179.25 172.75,-179.25 172.75,-179.25 97.75,-179.25"/>
<polygon fill="#666666" stroke="#666666" points="97.75,-133.5 97.75,-133.5 109.75,-133.5 109.75,-133.5 97.75,-133.5"/>
<polygon fill="#666666" stroke="#666666" points="109.75,-133.5 109.75,-133.5 172.75,-133.5 172.75,-133.5 109.75,-133.5"/>
<polygon fill="none" stroke="#666666" points="97.75,-101 97.75,-196.5 172.75,-196.5 172.75,-101 97.75,-101"/>
</a>
</g>
</g>
<!-- Node2 -->
<g id="Node000002" class="node">
<title>Node2</title>
<g id="a_Node000002"><a xlink:href="../../d2/d6e/class_log_message_command.html" target="_top" xlink:title=" ">
<polygon fill="white" stroke="none" points="124.5,-65 0,-65 0,0 124.5,0 124.5,-65"/>
<text xml:space="preserve" text-anchor="start" x="12" y="-51.5" font-family="Helvetica,sans-Serif" font-size="10.00">LogMessageCommand</text>
<text xml:space="preserve" text-anchor="start" x="60.75" y="-36.25" font-family="Helvetica,sans-Serif" font-size="10.00"> </text>
<text xml:space="preserve" text-anchor="start" x="4" y="-21" font-family="Helvetica,sans-Serif" font-size="10.00">+</text>
<text xml:space="preserve" text-anchor="start" x="14" y="-21" font-family="Helvetica,sans-Serif" font-size="10.00">LogMessageCommand()</text>
<text xml:space="preserve" text-anchor="start" x="4" y="-5.75" font-family="Helvetica,sans-Serif" font-size="10.00">+</text>
<text xml:space="preserve" text-anchor="start" x="14" y="-5.75" font-family="Helvetica,sans-Serif" font-size="10.00">execute()</text>
<polygon fill="#666666" stroke="#666666" points="0,-47.75 0,-47.75 124.5,-47.75 124.5,-47.75 0,-47.75"/>
<polygon fill="#666666" stroke="#666666" points="0,-32.5 0,-32.5 124.5,-32.5 124.5,-32.5 0,-32.5"/>
<polygon fill="none" stroke="#666666" points="0,0 0,-65 124.5,-65 124.5,0 0,0"/>
</a>
</g>
</g>
<!-- Node1&#45;&gt;Node2 -->
<g id="edge1_Node000001_Node000002" class="edge">
<title>Node1&#45;&gt;Node2</title>
<g id="a_edge1_Node000001_Node000002"><a xlink:title=" ">
<path fill="none" stroke="#63b8ff" d="M99.45,-91.72C93.56,-82.5 87.64,-73.24 82.32,-64.91"/>
<polygon fill="none" stroke="#63b8ff" points="96.41,-93.46 104.74,-100 102.31,-89.69 96.41,-93.46"/>
</a>
</g>
</g>
<!-- Node3 -->
<g id="Node000003" class="node">
<title>Node3</title>
<g id="a_Node000003"><a xlink:href="../../d1/d6f/class_send_message_command.html" target="_top" xlink:title=" ">
<polygon fill="white" stroke="none" points="273.88,-65 142.62,-65 142.62,0 273.88,0 273.88,-65"/>
<text xml:space="preserve" text-anchor="start" x="154.62" y="-51.5" font-family="Helvetica,sans-Serif" font-size="10.00">SendMessageCommand</text>
<text xml:space="preserve" text-anchor="start" x="206.75" y="-36.25" font-family="Helvetica,sans-Serif" font-size="10.00"> </text>
<text xml:space="preserve" text-anchor="start" x="146.62" y="-21" font-family="Helvetica,sans-Serif" font-size="10.00">+</text>
<text xml:space="preserve" text-anchor="start" x="156.62" y="-21" font-family="Helvetica,sans-Serif" font-size="10.00">SendMessageCommand()</text>
<text xml:space="preserve" text-anchor="start" x="146.62" y="-5.75" font-family="Helvetica,sans-Serif" font-size="10.00">+</text>
<text xml:space="preserve" text-anchor="start" x="156.62" y="-5.75" font-family="Helvetica,sans-Serif" font-size="10.00">execute()</text>
<polygon fill="#666666" stroke="#666666" points="142.62,-47.75 142.62,-47.75 273.88,-47.75 273.88,-47.75 142.62,-47.75"/>
<polygon fill="#666666" stroke="#666666" points="142.62,-32.5 142.62,-32.5 273.88,-32.5 273.88,-32.5 142.62,-32.5"/>
<polygon fill="none" stroke="#666666" points="142.62,0 142.62,-65 273.88,-65 273.88,0 142.62,0"/>
</a>
</g>
</g>
<!-- Node1&#45;&gt;Node3 -->
<g id="edge2_Node000001_Node000003" class="edge">
<title>Node1&#45;&gt;Node3</title>
<g id="a_edge2_Node000001_Node000003"><a xlink:title=" ">
<path fill="none" stroke="#63b8ff" d="M171.05,-91.72C176.94,-82.5 182.86,-73.24 188.18,-64.91"/>
<polygon fill="none" stroke="#63b8ff" points="168.19,-89.69 165.76,-100 174.09,-93.46 168.19,-89.69"/>
</a>
</g>
</g>
</g>
</svg>
