<?xml version="1.0" encoding="UTF-8" standalone="no"?>
<!DOCTYPE svg PUBLIC "-//W3C//DTD SVG 1.1//EN"
 "http://www.w3.org/Graphics/SVG/1.1/DTD/svg11.dtd">
<!-- Generated by graphviz version 14.0.0 (20250921.2048)
 -->
<!-- Title: ChatRoom Pages: 1 -->
<svg width="154pt" height="266pt"
 viewBox="0.00 0.00 154.00 266.00" xmlns="http://www.w3.org/2000/svg" xmlns:xlink="http://www.w3.org/1999/xlink">
<g id="graph0" class="graph" transform="scale(1 1) rotate(0) translate(4 261.5)">
<title>ChatRoom</title>
<!-- Node1 -->
<g id="Node000001" class="node">
<title>Node1</title>
<g id="a_Node000001"><a xlink:title="Abstract base class representing a chat room mediator.">
<polygon fill="#999999" stroke="none" points="135.12,-257.5 21.12,-257.5 21.12,-85.75 135.12,-85.75 135.12,-257.5"/>
<text xml:space="preserve" text-anchor="start" x="54.5" y="-244" font-family="Helvetica,sans-Serif" font-size="10.00">ChatRoom</text>
<text xml:space="preserve" text-anchor="start" x="26.62" y="-228.75" font-family="Helvetica,sans-Serif" font-size="10.00">&#45;</text>
<text xml:space="preserve" text-anchor="start" x="35.12" y="-228.75" font-family="Helvetica,sans-Serif" font-size="10.00">users</text>
<text xml:space="preserve" text-anchor="start" x="26.62" y="-213.5" font-family="Helvetica,sans-Serif" font-size="10.00">&#45;</text>
<text xml:space="preserve" text-anchor="start" x="35.12" y="-213.5" font-family="Helvetica,sans-Serif" font-size="10.00">numUsers</text>
<text xml:space="preserve" text-anchor="start" x="26.62" y="-198.25" font-family="Helvetica,sans-Serif" font-size="10.00">&#45;</text>
<text xml:space="preserve" text-anchor="start" x="35.12" y="-198.25" font-family="Helvetica,sans-Serif" font-size="10.00">chatHistory</text>
<text xml:space="preserve" text-anchor="start" x="25.12" y="-183" font-family="Helvetica,sans-Serif" font-size="10.00">+</text>
<text xml:space="preserve" text-anchor="start" x="35.12" y="-183" font-family="Helvetica,sans-Serif" font-size="10.00">registerUser()</text>
<text xml:space="preserve" text-anchor="start" x="25.12" y="-167.75" font-family="Helvetica,sans-Serif" font-size="10.00">+</text>
<text xml:space="preserve" text-anchor="start" x="35.12" y="-167.75" font-family="Helvetica,sans-Serif" font-size="10.00">sendMessage()</text>
<text xml:space="preserve" text-anchor="start" x="25.12" y="-152.5" font-family="Helvetica,sans-Serif" font-size="10.00">+</text>
<text xml:space="preserve" text-anchor="start" x="35.12" y="-152.5" font-family="Helvetica,sans-Serif" font-size="10.00">saveMessage()</text>
<text xml:space="preserve" text-anchor="start" x="25.12" y="-137.25" font-family="Helvetica,sans-Serif" font-size="10.00">+</text>
<text xml:space="preserve" text-anchor="start" x="35.12" y="-137.25" font-family="Helvetica,sans-Serif" font-size="10.00">removeUser()</text>
<text xml:space="preserve" text-anchor="start" x="25.12" y="-122" font-family="Helvetica,sans-Serif" font-size="10.00">+</text>
<text xml:space="preserve" text-anchor="start" x="35.12" y="-122" font-family="Helvetica,sans-Serif" font-size="10.00">getUsers()</text>
<text xml:space="preserve" text-anchor="start" x="25.12" y="-106.75" font-family="Helvetica,sans-Serif" font-size="10.00">+</text>
<text xml:space="preserve" text-anchor="start" x="35.12" y="-106.75" font-family="Helvetica,sans-Serif" font-size="10.00">incrementNumUsers()</text>
<text xml:space="preserve" text-anchor="start" x="25.12" y="-91.5" font-family="Helvetica,sans-Serif" font-size="10.00">+</text>
<text xml:space="preserve" text-anchor="start" x="35.12" y="-91.5" font-family="Helvetica,sans-Serif" font-size="10.00">getNumUsers()</text>
<polygon fill="#666666" stroke="#666666" points="21.12,-240.25 21.12,-240.25 135.12,-240.25 135.12,-240.25 21.12,-240.25"/>
<polygon fill="#666666" stroke="#666666" points="21.12,-194.5 21.12,-194.5 33.12,-194.5 33.12,-194.5 21.12,-194.5"/>
<polygon fill="#666666" stroke="#666666" points="33.12,-194.5 33.12,-194.5 135.12,-194.5 135.12,-194.5 33.12,-194.5"/>
<polygon fill="none" stroke="#666666" points="21.12,-85.75 21.12,-257.5 135.12,-257.5 135.12,-85.75 21.12,-85.75"/>
</a>
</g>
</g>
<!-- Node2 -->
<g id="Node000002" class="node">
<title>Node2</title>
<g id="a_Node000002"><a xlink:href="../../dc/d20/class_ctrl_cat.html" target="_top" xlink:title="A specific chat room implementation: CtrlCat.">
<polygon fill="white" stroke="none" points="74.25,-49.75 0,-49.75 0,0 74.25,0 74.25,-49.75"/>
<text xml:space="preserve" text-anchor="start" x="21.38" y="-36.25" font-family="Helvetica,sans-Serif" font-size="10.00">CtrlCat</text>
<text xml:space="preserve" text-anchor="start" x="35.62" y="-21" font-family="Helvetica,sans-Serif" font-size="10.00"> </text>
<text xml:space="preserve" text-anchor="start" x="4" y="-5.75" font-family="Helvetica,sans-Serif" font-size="10.00">&#45;</text>
<text xml:space="preserve" text-anchor="start" x="11" y="-5.75" font-family="Helvetica,sans-Serif" font-size="10.00">registerUser()</text>
<polygon fill="#666666" stroke="#666666" points="0,-32.5 0,-32.5 74.25,-32.5 74.25,-32.5 0,-32.5"/>
<polygon fill="#666666" stroke="#666666" points="0,-17.25 0,-17.25 74.25,-17.25 74.25,-17.25 0,-17.25"/>
<polygon fill="none" stroke="#666666" points="0,0 0,-49.75 74.25,-49.75 74.25,0 0,0"/>
</a>
</g>
</g>
<!-- Node1&#45;&gt;Node2 -->
<g id="edge1_Node000001_Node000002" class="edge">
<title>Node1&#45;&gt;Node2</title>
<g id="a_edge1_Node000001_Node000002"><a xlink:title=" ">
<path fill="none" stroke="#63b8ff" d="M51.1,-75.21C48.44,-65.83 45.95,-57.03 43.83,-49.53"/>
<polygon fill="none" stroke="#63b8ff" points="47.65,-75.88 53.74,-84.55 54.39,-73.97 47.65,-75.88"/>
</a>
</g>
</g>
<!-- Node3 -->
<g id="Node000003" class="node">
<title>Node3</title>
<g id="a_Node000003"><a xlink:href="../../dc/d0e/class_dogorithm.html" target="_top" xlink:title="A specific chat room implementation: Dogorithm.">
<polygon fill="white" stroke="none" points="145.62,-49.75 92.62,-49.75 92.62,0 145.62,0 145.62,-49.75"/>
<text xml:space="preserve" text-anchor="start" x="96.62" y="-36.25" font-family="Helvetica,sans-Serif" font-size="10.00">Dogorithm</text>
<text xml:space="preserve" text-anchor="start" x="117.62" y="-21" font-family="Helvetica,sans-Serif" font-size="10.00"> </text>
<text xml:space="preserve" text-anchor="start" x="117.62" y="-5.75" font-family="Helvetica,sans-Serif" font-size="10.00"> </text>
<polygon fill="#666666" stroke="#666666" points="92.62,-32.5 92.62,-32.5 145.62,-32.5 145.62,-32.5 92.62,-32.5"/>
<polygon fill="#666666" stroke="#666666" points="92.62,-17.25 92.62,-17.25 145.62,-17.25 145.62,-17.25 92.62,-17.25"/>
<polygon fill="none" stroke="#666666" points="92.62,0 92.62,-49.75 145.62,-49.75 145.62,0 92.62,0"/>
</a>
</g>
</g>
<!-- Node1&#45;&gt;Node3 -->
<g id="edge2_Node000001_Node000003" class="edge">
<title>Node1&#45;&gt;Node3</title>
<g id="a_edge2_Node000001_Node000003"><a xlink:title=" ">
<path fill="none" stroke="#63b8ff" d="M105.15,-75.21C107.81,-65.83 110.3,-57.03 112.42,-49.53"/>
<polygon fill="none" stroke="#63b8ff" points="101.86,-73.97 102.51,-84.55 108.6,-75.88 101.86,-73.97"/>
</a>
</g>
</g>
</g>
</svg>
