<?xml version="1.0" encoding="UTF-8" standalone="no"?>
<!DOCTYPE svg PUBLIC "-//W3C//DTD SVG 1.1//EN"
 "http://www.w3.org/Graphics/SVG/1.1/DTD/svg11.dtd">
<!-- Generated by graphviz version 14.0.0 (20250921.2048)
 -->
<!-- Title: CtrlCat Pages: 1 -->
<svg width="122pt" height="266pt"
 viewBox="0.00 0.00 122.00 266.00" xmlns="http://www.w3.org/2000/svg" xmlns:xlink="http://www.w3.org/1999/xlink">
<g id="graph0" class="graph" transform="scale(1 1) rotate(0) translate(4 261.5)">
<title>CtrlCat</title>
<!-- Node1 -->
<g id="Node000001" class="node">
<title>Node1</title>
<g id="a_Node000001"><a xlink:title="A specific chat room implementation: CtrlCat.">
<polygon fill="#999999" stroke="none" points="94.12,-49.75 19.88,-49.75 19.88,0 94.12,0 94.12,-49.75"/>
<text xml:space="preserve" text-anchor="start" x="41.25" y="-36.25" font-family="Helvetica,sans-Serif" font-size="10.00">CtrlCat</text>
<text xml:space="preserve" text-anchor="start" x="55.5" y="-21" font-family="Helvetica,sans-Serif" font-size="10.00"> </text>
<text xml:space="preserve" text-anchor="start" x="23.88" y="-5.75" font-family="Helvetica,sans-Serif" font-size="10.00">&#45;</text>
<text xml:space="preserve" text-anchor="start" x="30.88" y="-5.75" font-family="Helvetica,sans-Serif" font-size="10.00">registerUser()</text>
<polygon fill="#666666" stroke="#666666" points="19.88,-32.5 19.88,-32.5 94.12,-32.5 94.12,-32.5 19.88,-32.5"/>
<polygon fill="#666666" stroke="#666666" points="19.88,-17.25 19.88,-17.25 94.12,-17.25 94.12,-17.25 19.88,-17.25"/>
<polygon fill="none" stroke="#666666" points="19.88,0 19.88,-49.75 94.12,-49.75 94.12,0 19.88,0"/>
</a>
</g>
</g>
<!-- Node2 -->
<g id="Node000002" class="node">
<title>Node2</title>
<g id="a_Node000002"><a xlink:href="../../df/d67/class_chat_room.html" target="_top" xlink:title="Abstract base class representing a chat room mediator.">
<polygon fill="white" stroke="none" points="114,-257.5 0,-257.5 0,-85.75 114,-85.75 114,-257.5"/>
<text xml:space="preserve" text-anchor="start" x="33.38" y="-244" font-family="Helvetica,sans-Serif" font-size="10.00">ChatRoom</text>
<text xml:space="preserve" text-anchor="start" x="5.5" y="-228.75" font-family="Helvetica,sans-Serif" font-size="10.00">&#45;</text>
<text xml:space="preserve" text-anchor="start" x="14" y="-228.75" font-family="Helvetica,sans-Serif" font-size="10.00">users</text>
<text xml:space="preserve" text-anchor="start" x="5.5" y="-213.5" font-family="Helvetica,sans-Serif" font-size="10.00">&#45;</text>
<text xml:space="preserve" text-anchor="start" x="14" y="-213.5" font-family="Helvetica,sans-Serif" font-size="10.00">numUsers</text>
<text xml:space="preserve" text-anchor="start" x="5.5" y="-198.25" font-family="Helvetica,sans-Serif" font-size="10.00">&#45;</text>
<text xml:space="preserve" text-anchor="start" x="14" y="-198.25" font-family="Helvetica,sans-Serif" font-size="10.00">chatHistory</text>
<text xml:space="preserve" text-anchor="start" x="4" y="-183" font-family="Helvetica,sans-Serif" font-size="10.00">+</text>
<text xml:space="preserve" text-anchor="start" x="14" y="-183" font-family="Helvetica,sans-Serif" font-size="10.00">registerUser()</text>
<text xml:space="preserve" text-anchor="start" x="4" y="-167.75" font-family="Helvetica,sans-Serif" font-size="10.00">+</text>
<text xml:space="preserve" text-anchor="start" x="14" y="-167.75" font-family="Helvetica,sans-Serif" font-size="10.00">sendMessage()</text>
<text xml:space="preserve" text-anchor="start" x="4" y="-152.5" font-family="Helvetica,sans-Serif" font-size="10.00">+</text>
<text xml:space="preserve" text-anchor="start" x="14" y="-152.5" font-family="Helvetica,sans-Serif" font-size="10.00">saveMessage()</text>
<text xml:space="preserve" text-anchor="start" x="4" y="-137.25" font-family="Helvetica,sans-Serif" font-size="10.00">+</text>
<text xml:space="preserve" text-anchor="start" x="14" y="-137.25" font-family="Helvetica,sans-Serif" font-size="10.00">removeUser()</text>
<text xml:space="preserve" text-anchor="start" x="4" y="-122" font-family="Helvetica,sans-Serif" font-size="10.00">+</text>
<text xml:space="preserve" text-anchor="start" x="14" y="-122" font-family="Helvetica,sans-Serif" font-size="10.00">getUsers()</text>
<text xml:space="preserve" text-anchor="start" x="4" y="-106.75" font-family="Helvetica,sans-Serif" font-size="10.00">+</text>
<text xml:space="preserve" text-anchor="start" x="14" y="-106.75" font-family="Helvetica,sans-Serif" font-size="10.00">incrementNumUsers()</text>
<text xml:space="preserve" text-anchor="start" x="4" y="-91.5" font-family="Helvetica,sans-Serif" font-size="10.00">+</text>
<text xml:space="preserve" text-anchor="start" x="14" y="-91.5" font-family="Helvetica,sans-Serif" font-size="10.00">getNumUsers()</text>
<polygon fill="#666666" stroke="#666666" points="0,-240.25 0,-240.25 114,-240.25 114,-240.25 0,-240.25"/>
<polygon fill="#666666" stroke="#666666" points="0,-194.5 0,-194.5 12,-194.5 12,-194.5 0,-194.5"/>
<polygon fill="#666666" stroke="#666666" points="12,-194.5 12,-194.5 114,-194.5 114,-194.5 12,-194.5"/>
<polygon fill="none" stroke="#666666" points="0,-85.75 0,-257.5 114,-257.5 114,-85.75 0,-85.75"/>
</a>
</g>
</g>
<!-- Node2&#45;&gt;Node1 -->
<g id="edge1_Node000001_Node000002" class="edge">
<title>Node2&#45;&gt;Node1</title>
<g id="a_edge1_Node000001_Node000002"><a xlink:title=" ">
<path fill="none" stroke="#63b8ff" d="M57,-74.61C57,-65.45 57,-56.87 57,-49.53"/>
<polygon fill="none" stroke="#63b8ff" points="53.5,-74.49 57,-84.49 60.5,-74.49 53.5,-74.49"/>
</a>
</g>
</g>
</g>
</svg>
