<?xml version="1.0" encoding="UTF-8" standalone="no"?>
<!DOCTYPE svg PUBLIC "-//W3C//DTD SVG 1.1//EN"
 "http://www.w3.org/Graphics/SVG/1.1/DTD/svg11.dtd">
<!-- Generated by graphviz version 14.0.0 (20250921.2048)
 -->
<!-- Title: SendMessageCommand Pages: 1 -->
<svg width="139pt" height="205pt"
 viewBox="0.00 0.00 139.00 205.00" xmlns="http://www.w3.org/2000/svg" xmlns:xlink="http://www.w3.org/1999/xlink">
<g id="graph0" class="graph" transform="scale(1 1) rotate(0) translate(4 200.5)">
<title>SendMessageCommand</title>
<!-- Node1 -->
<g id="Node000001" class="node">
<title>Node1</title>
<g id="a_Node000001"><a xlink:title=" ">
<polygon fill="#999999" stroke="none" points="131.25,-65 0,-65 0,0 131.25,0 131.25,-65"/>
<text xml:space="preserve" text-anchor="start" x="12" y="-51.5" font-family="Helvetica,sans-Serif" font-size="10.00">SendMessageCommand</text>
<text xml:space="preserve" text-anchor="start" x="64.12" y="-36.25" font-family="Helvetica,sans-Serif" font-size="10.00"> </text>
<text xml:space="preserve" text-anchor="start" x="4" y="-21" font-family="Helvetica,sans-Serif" font-size="10.00">+</text>
<text xml:space="preserve" text-anchor="start" x="14" y="-21" font-family="Helvetica,sans-Serif" font-size="10.00">SendMessageCommand()</text>
<text xml:space="preserve" text-anchor="start" x="4" y="-5.75" font-family="Helvetica,sans-Serif" font-size="10.00">+</text>
<text xml:space="preserve" text-anchor="start" x="14" y="-5.75" font-family="Helvetica,sans-Serif" font-size="10.00">execute()</text>
<polygon fill="#666666" stroke="#666666" points="0,-47.75 0,-47.75 131.25,-47.75 131.25,-47.75 0,-47.75"/>
<polygon fill="#666666" stroke="#666666" points="0,-32.5 0,-32.5 131.25,-32.5 131.25,-32.5 0,-32.5"/>
<polygon fill="none" stroke="#666666" points="0,0 0,-65 131.25,-65 131.25,0 0,0"/>
</a>
</g>
</g>
<!-- Node2 -->
<g id="Node000002" class="node">
<title>Node2</title>
<g id="a_Node000002"><a xlink:href="../../d5/d6a/class_command.html" target="_top" xlink:title=" ">
<polygon fill="white" stroke="none" points="103.12,-196.5 28.12,-196.5 28.12,-101 103.12,-101 103.12,-196.5"/>
<text xml:space="preserve" text-anchor="start" x="43.12" y="-183" font-family="Helvetica,sans-Serif" font-size="10.00">Command</text>
<text xml:space="preserve" text-anchor="start" x="32.5" y="-167.75" font-family="Helvetica,sans-Serif" font-size="10.00">#</text>
<text xml:space="preserve" text-anchor="start" x="42.12" y="-167.75" font-family="Helvetica,sans-Serif" font-size="10.00">chatRoom</text>
<text xml:space="preserve" text-anchor="start" x="32.5" y="-152.5" font-family="Helvetica,sans-Serif" font-size="10.00">#</text>
<text xml:space="preserve" text-anchor="start" x="42.12" y="-152.5" font-family="Helvetica,sans-Serif" font-size="10.00">fromUser</text>
<text xml:space="preserve" text-anchor="start" x="32.5" y="-137.25" font-family="Helvetica,sans-Serif" font-size="10.00">#</text>
<text xml:space="preserve" text-anchor="start" x="42.12" y="-137.25" font-family="Helvetica,sans-Serif" font-size="10.00">message</text>
<text xml:space="preserve" text-anchor="start" x="32.12" y="-122" font-family="Helvetica,sans-Serif" font-size="10.00">+</text>
<text xml:space="preserve" text-anchor="start" x="42.12" y="-122" font-family="Helvetica,sans-Serif" font-size="10.00">~Command()</text>
<text xml:space="preserve" text-anchor="start" x="32.12" y="-106.75" font-family="Helvetica,sans-Serif" font-size="10.00">+</text>
<text xml:space="preserve" text-anchor="start" x="42.12" y="-106.75" font-family="Helvetica,sans-Serif" font-size="10.00">execute()</text>
<polygon fill="#666666" stroke="#666666" points="28.12,-179.25 28.12,-179.25 103.12,-179.25 103.12,-179.25 28.12,-179.25"/>
<polygon fill="#666666" stroke="#666666" points="28.12,-133.5 28.12,-133.5 40.12,-133.5 40.12,-133.5 28.12,-133.5"/>
<polygon fill="#666666" stroke="#666666" points="40.12,-133.5 40.12,-133.5 103.12,-133.5 103.12,-133.5 40.12,-133.5"/>
<polygon fill="none" stroke="#666666" points="28.12,-101 28.12,-196.5 103.12,-196.5 103.12,-101 28.12,-101"/>
</a>
</g>
</g>
<!-- Node2&#45;&gt;Node1 -->
<g id="edge1_Node000001_Node000002" class="edge">
<title>Node2&#45;&gt;Node1</title>
<g id="a_edge1_Node000001_Node000002"><a xlink:title=" ">
<path fill="none" stroke="#63b8ff" d="M65.62,-89.98C65.62,-81.34 65.62,-72.72 65.62,-64.91"/>
<polygon fill="none" stroke="#63b8ff" points="62.13,-89.77 65.63,-99.77 69.13,-89.77 62.13,-89.77"/>
</a>
</g>
</g>
</g>
</svg>
