<?xml version="1.0" encoding="UTF-8" standalone="no"?>
<!DOCTYPE svg PUBLIC "-//W3C//DTD SVG 1.1//EN"
 "http://www.w3.org/Graphics/SVG/1.1/DTD/svg11.dtd">
<!-- Generated by graphviz version 14.0.0 (20250921.2048)
 -->
<!-- Title: Users::send Pages: 1 -->
<svg width="222pt" height="64pt"
 viewBox="0.00 0.00 222.00 64.00" xmlns="http://www.w3.org/2000/svg" xmlns:xlink="http://www.w3.org/1999/xlink">
<g id="graph0" class="graph" transform="scale(1 1) rotate(0) translate(4 60.25)">
<title>Users::send</title>
<!-- Node1 -->
<g id="Node000001" class="node">
<title>Node1</title>
<g id="a_Node000001"><a xlink:title=" ">
<polygon fill="#999999" stroke="#666666" points="69.25,-37.25 0,-37.25 0,-18 69.25,-18 69.25,-37.25"/>
<text xml:space="preserve" text-anchor="middle" x="34.62" y="-23.75" font-family="Helvetica,sans-Serif" font-size="10.00">Users::send</text>
</a>
</g>
</g>
<!-- Node2 -->
<g id="Node000002" class="node">
<title>Node2</title>
<g id="a_Node000002"><a xlink:href="../../db/d7f/class_users.html#a61fe2790b6bf1c037257d921b6a8d45c" target="_top" xlink:title=" ">
<polygon fill="white" stroke="#666666" points="214.25,-56.25 105.25,-56.25 105.25,-37 214.25,-37 214.25,-56.25"/>
<text xml:space="preserve" text-anchor="middle" x="159.75" y="-42.75" font-family="Helvetica,sans-Serif" font-size="10.00">Users::addCommand</text>
</a>
</g>
</g>
<!-- Node1&#45;&gt;Node2 -->
<g id="edge1_Node000001_Node000002" class="edge">
<title>Node1&#45;&gt;Node2</title>
<g id="a_edge1_Node000001_Node000002"><a xlink:title=" ">
<path fill="none" stroke="#63b8ff" d="M69.6,-32.87C77.13,-34.03 85.36,-35.3 93.68,-36.58"/>
<polygon fill="#63b8ff" stroke="#63b8ff" points="93.11,-40.04 103.52,-38.1 94.17,-33.12 93.11,-40.04"/>
</a>
</g>
</g>
<!-- Node3 -->
<g id="Node000003" class="node">
<title>Node3</title>
<g id="a_Node000003"><a xlink:href="../../db/d7f/class_users.html#aabafaa656ae27340b904c083b70b2d97" target="_top" xlink:title=" ">
<polygon fill="white" stroke="#666666" points="206.75,-19.25 112.75,-19.25 112.75,0 206.75,0 206.75,-19.25"/>
<text xml:space="preserve" text-anchor="middle" x="159.75" y="-5.75" font-family="Helvetica,sans-Serif" font-size="10.00">Users::executeAll</text>
</a>
</g>
</g>
<!-- Node1&#45;&gt;Node3 -->
<g id="edge2_Node000001_Node000003" class="edge">
<title>Node1&#45;&gt;Node3</title>
<g id="a_edge2_Node000001_Node000003"><a xlink:title=" ">
<path fill="none" stroke="#63b8ff" d="M69.6,-22.66C79.42,-21.22 90.43,-19.61 101.27,-18.03"/>
<polygon fill="#63b8ff" stroke="#63b8ff" points="101.56,-21.52 110.95,-16.61 100.55,-14.6 101.56,-21.52"/>
</a>
</g>
</g>
</g>
</svg>
