<?xml version="1.0" encoding="UTF-8" standalone="no"?>
<!DOCTYPE svg PUBLIC "-//W3C//DTD SVG 1.1//EN"
 "http://www.w3.org/Graphics/SVG/1.1/DTD/svg11.dtd">
<!-- Generated by graphviz version 14.0.0 (20250921.2048)
 -->
<!-- Title: Users Pages: 1 -->
<svg width="127pt" height="344pt"
 viewBox="0.00 0.00 127.00 344.00" xmlns="http://www.w3.org/2000/svg" xmlns:xlink="http://www.w3.org/1999/xlink">
<g id="graph0" class="graph" transform="scale(1 1) rotate(0) translate(4 339.75)">
<title>Users</title>
<!-- Node1 -->
<g id="Node000001" class="node">
<title>Node1</title>
<g id="a_Node000001"><a xlink:title="Represents a user that participates in a chat room.">
<polygon fill="#999999" stroke="none" points="101.62,-110.75 12.38,-110.75 12.38,0 101.62,0 101.62,-110.75"/>
<text xml:space="preserve" text-anchor="start" x="43.88" y="-97.25" font-family="Helvetica,sans-Serif" font-size="10.00">Users</text>
<text xml:space="preserve" text-anchor="start" x="16.75" y="-82" font-family="Helvetica,sans-Serif" font-size="10.00">#</text>
<text xml:space="preserve" text-anchor="start" x="26.38" y="-82" font-family="Helvetica,sans-Serif" font-size="10.00">name</text>
<text xml:space="preserve" text-anchor="start" x="16.75" y="-66.75" font-family="Helvetica,sans-Serif" font-size="10.00">#</text>
<text xml:space="preserve" text-anchor="start" x="26.38" y="-66.75" font-family="Helvetica,sans-Serif" font-size="10.00">commandQueue</text>
<text xml:space="preserve" text-anchor="start" x="16.38" y="-51.5" font-family="Helvetica,sans-Serif" font-size="10.00">+</text>
<text xml:space="preserve" text-anchor="start" x="26.38" y="-51.5" font-family="Helvetica,sans-Serif" font-size="10.00">send()</text>
<text xml:space="preserve" text-anchor="start" x="16.38" y="-36.25" font-family="Helvetica,sans-Serif" font-size="10.00">+</text>
<text xml:space="preserve" text-anchor="start" x="26.38" y="-36.25" font-family="Helvetica,sans-Serif" font-size="10.00">receive()</text>
<text xml:space="preserve" text-anchor="start" x="16.38" y="-21" font-family="Helvetica,sans-Serif" font-size="10.00">+</text>
<text xml:space="preserve" text-anchor="start" x="26.38" y="-21" font-family="Helvetica,sans-Serif" font-size="10.00">addCommand()</text>
<text xml:space="preserve" text-anchor="start" x="16.38" y="-5.75" font-family="Helvetica,sans-Serif" font-size="10.00">+</text>
<text xml:space="preserve" text-anchor="start" x="26.38" y="-5.75" font-family="Helvetica,sans-Serif" font-size="10.00">executeAll()</text>
<polygon fill="#666666" stroke="#666666" points="12.38,-93.5 12.38,-93.5 101.62,-93.5 101.62,-93.5 12.38,-93.5"/>
<polygon fill="#666666" stroke="#666666" points="12.38,-63 12.38,-63 24.38,-63 24.38,-63 12.38,-63"/>
<polygon fill="#666666" stroke="#666666" points="24.38,-63 24.38,-63 101.62,-63 101.62,-63 24.38,-63"/>
<polygon fill="none" stroke="#666666" points="12.38,0 12.38,-110.75 101.62,-110.75 101.62,0 12.38,0"/>
</a>
</g>
</g>
<!-- Node2 -->
<g id="Node000002" class="node">
<title>Node2</title>
<g id="a_Node000002"><a xlink:href="../../df/d67/class_chat_room.html" target="_top" xlink:title="Abstract base class representing a chat room mediator.">
<polygon fill="white" stroke="none" points="114,-335.75 0,-335.75 0,-164 114,-164 114,-335.75"/>
<text xml:space="preserve" text-anchor="start" x="33.38" y="-322.25" font-family="Helvetica,sans-Serif" font-size="10.00">ChatRoom</text>
<text xml:space="preserve" text-anchor="start" x="5.5" y="-307" font-family="Helvetica,sans-Serif" font-size="10.00">&#45;</text>
<text xml:space="preserve" text-anchor="start" x="14" y="-307" font-family="Helvetica,sans-Serif" font-size="10.00">users</text>
<text xml:space="preserve" text-anchor="start" x="5.5" y="-291.75" font-family="Helvetica,sans-Serif" font-size="10.00">&#45;</text>
<text xml:space="preserve" text-anchor="start" x="14" y="-291.75" font-family="Helvetica,sans-Serif" font-size="10.00">numUsers</text>
<text xml:space="preserve" text-anchor="start" x="5.5" y="-276.5" font-family="Helvetica,sans-Serif" font-size="10.00">&#45;</text>
<text xml:space="preserve" text-anchor="start" x="14" y="-276.5" font-family="Helvetica,sans-Serif" font-size="10.00">chatHistory</text>
<text xml:space="preserve" text-anchor="start" x="4" y="-261.25" font-family="Helvetica,sans-Serif" font-size="10.00">+</text>
<text xml:space="preserve" text-anchor="start" x="14" y="-261.25" font-family="Helvetica,sans-Serif" font-size="10.00">registerUser()</text>
<text xml:space="preserve" text-anchor="start" x="4" y="-246" font-family="Helvetica,sans-Serif" font-size="10.00">+</text>
<text xml:space="preserve" text-anchor="start" x="14" y="-246" font-family="Helvetica,sans-Serif" font-size="10.00">sendMessage()</text>
<text xml:space="preserve" text-anchor="start" x="4" y="-230.75" font-family="Helvetica,sans-Serif" font-size="10.00">+</text>
<text xml:space="preserve" text-anchor="start" x="14" y="-230.75" font-family="Helvetica,sans-Serif" font-size="10.00">saveMessage()</text>
<text xml:space="preserve" text-anchor="start" x="4" y="-215.5" font-family="Helvetica,sans-Serif" font-size="10.00">+</text>
<text xml:space="preserve" text-anchor="start" x="14" y="-215.5" font-family="Helvetica,sans-Serif" font-size="10.00">removeUser()</text>
<text xml:space="preserve" text-anchor="start" x="4" y="-200.25" font-family="Helvetica,sans-Serif" font-size="10.00">+</text>
<text xml:space="preserve" text-anchor="start" x="14" y="-200.25" font-family="Helvetica,sans-Serif" font-size="10.00">getUsers()</text>
<text xml:space="preserve" text-anchor="start" x="4" y="-185" font-family="Helvetica,sans-Serif" font-size="10.00">+</text>
<text xml:space="preserve" text-anchor="start" x="14" y="-185" font-family="Helvetica,sans-Serif" font-size="10.00">incrementNumUsers()</text>
<text xml:space="preserve" text-anchor="start" x="4" y="-169.75" font-family="Helvetica,sans-Serif" font-size="10.00">+</text>
<text xml:space="preserve" text-anchor="start" x="14" y="-169.75" font-family="Helvetica,sans-Serif" font-size="10.00">getNumUsers()</text>
<polygon fill="#666666" stroke="#666666" points="0,-318.5 0,-318.5 114,-318.5 114,-318.5 0,-318.5"/>
<polygon fill="#666666" stroke="#666666" points="0,-272.75 0,-272.75 12,-272.75 12,-272.75 0,-272.75"/>
<polygon fill="#666666" stroke="#666666" points="12,-272.75 12,-272.75 114,-272.75 114,-272.75 12,-272.75"/>
<polygon fill="none" stroke="#666666" points="0,-164 0,-335.75 114,-335.75 114,-164 0,-164"/>
</a>
</g>
</g>
<!-- Node2&#45;&gt;Node1 -->
<g id="edge1_Node000001_Node000002" class="edge">
<title>Node2&#45;&gt;Node1</title>
<g id="a_edge1_Node000001_Node000002"><a xlink:title=" ">
<path fill="none" stroke="#63b8ff" d="M57,-164.16C57,-150.54 57,-136.61 57,-123.48"/>
<polygon fill="none" stroke="#63b8ff" points="57,-123.56 53,-117.56 57,-111.56 61,-117.56 57,-123.56"/>
</a>
</g>
<text xml:space="preserve" text-anchor="start" x="60" y="-133.5" font-family="Helvetica,sans-Serif" font-size="10.00" fill="grey">#chatRooms</text>
</g>
</g>
</svg>
